<svg
    xmlns="http://www.w3.org/2000/svg"
    viewBox="0 0 452 307"
    id="vector">
    <g id="group_1">
        <g id="group">
            <path
                id="path"
                d="M 452.45 37.42 L 452.45 229.16 C 426.93 201.42 399.65 173.62 358.77 173.62 C 257.54 173.62 248.77 243.5 119.12 291.62 C 75.62 307.75 35.12 310.52 0 303.43 L 0 37.43 C 0 16.77 16.38 0 36.55 0 L 415.9 0 C 436.1 0 452.45 16.77 452.45 37.42 Z"
                fill="#43c7d1"
                stroke-width="1"/>
            <path
                id="path_1"
                d="M 415.9 0 L 0 0 L 0 249.86 C 36.24 266.51 82.87 269.22 134.34 250.13 C 245.58 208.87 253.1 148.94 339.93 148.94 C 388.16 148.94 421.31 173.87 452.45 200.11 L 452.45 0 Z"
                fill="#3bb3c3"
                stroke-width="1"/>
        </g>
    </g>
</svg>
