<svg
    xmlns="http://www.w3.org/2000/svg"
    viewBox="0 0 304 91"
    id="vector">
    <g id="group_1">
        <g id="group">
            <path
                id="path"
                d="M 68.94 32.73 L 48.38 32.73 L 48.38 32.62 C 48.375 32.56 48.375 32.5 48.38 32.44 C 48.375 32.39 48.375 32.34 48.38 32.29 L 48.32 31.92 L 48.32 31.5 C 48.326 31.437 48.326 31.373 48.32 31.31 L 48.32 31.18 C 48.325 31.117 48.325 31.053 48.32 30.99 L 48.32 30.87 C 48.325 30.807 48.325 30.743 48.32 30.68 L 48.32 30.56 L 48.32 30.27 L 48.26 30.07 L 48.17 29.79 L 48.11 29.62 L 48.11 29.48 L 48.05 29.31 L 48.05 29.19 C 48.05 29.13 48 29.07 47.98 29.02 L 47.93 28.9 L 47.86 28.72 L 47.8 28.6 C 47.781 28.545 47.757 28.491 47.73 28.44 L 47.67 28.31 L 47.6 28.15 L 47 28 C 47 27.89 46.89 27.78 46.83 27.67 L 46.78 27.57 L 46.69 27.41 L 46.63 27.3 L 46.53 27.13 L 46.47 27.03 C 46.44 26.974 46.407 26.921 46.37 26.87 L 46.31 26.76 L 46.21 26.61 L 46.14 26.5 L 46 26.38 L 46 26.29 Q 45.81 26.01 45.58 25.72 L 45.53 25.65 L 45.41 25.5 L 45.33 25.4 L 45.22 25.27 L 45.13 25.16 L 45 25 L 44.92 24.9 L 44.79 24.76 L 44.71 24.67 L 44.58 24.54 L 44.5 24.46 C 44.4 24.35 44.29 24.24 44.18 24.14 L 44 24 L 43.91 23.92 L 43.77 23.79 L 43.68 23.71 L 43.54 23.59 L 43.44 23.51 L 43.3 23.39 L 43.21 23.32 L 43.05 23.2 L 43 23.14 L 42.4 22.71 L 42.35 22.71 L 42.18 22.6 L 42.09 22.54 L 41.92 22.43 L 41.83 22.37 L 41.66 22.27 L 41.57 22.22 L 41.39 22.11 L 41.28 22 L 41.1 21.9 L 41.03 21.9 C 40.8 21.78 40.58 21.66 40.35 21.56 L 40.28 21.56 L 40.09 21.47 L 39.99 21.47 L 39.8 21.39 L 39.71 21.39 L 39.5 21.31 L 39.43 21.31 L 39.21 21.23 L 39.15 21.23 Q 38.64 21.05 38.15 20.9 L 38 20.9 L 37.77 20.84 L 37.7 20.84 L 37.47 20.79 L 37.39 20.79 L 37.16 20.74 L 37.08 20.74 L 36.84 20.69 C 36.55 20.64 36.27 20.6 35.98 20.57 L 35.98 0 L 39.98 0 L 39.98 7.84 C 40.006 13.373 42.218 18.677 46.131 22.589 C 50.043 26.502 55.347 28.714 60.88 28.74 L 68.96 28.74 Z M 0 32.73 L 20.55 32.73 L 20.55 32.62 C 20.545 32.56 20.545 32.5 20.55 32.44 C 20.545 32.39 20.545 32.34 20.55 32.29 L 20.61 31.92 L 20.61 31.82 L 20.61 31.5 C 20.614 31.437 20.614 31.373 20.61 31.31 L 20.61 31.18 L 20.61 30.87 C 20.61 30.81 20.61 30.74 20.66 30.68 L 20.66 30.56 C 20.671 30.495 20.687 30.432 20.71 30.37 L 20.71 30.27 L 20.77 30.07 L 20.86 29.79 L 20.92 29.62 L 20.92 29.48 C 20.949 29.426 20.973 29.369 20.99 29.31 L 21.04 29.19 L 21.1 29.02 L 21.15 28.9 L 21.23 28.72 L 21.28 28.6 L 21.35 28.44 L 21.41 28.31 C 21.41 28.31 21.46 28.2 21.49 28.15 L 21.54 28.04 L 21.71 27.71 L 21.76 27.61 L 21.86 27.45 L 21.92 27.34 L 22.01 27.17 L 22.07 27.07 L 22.17 26.91 L 22.24 26.8 C 22.27 26.748 22.303 26.698 22.34 26.65 L 22.41 26.54 L 22.51 26.38 L 22.57 26.29 L 22.99 25.72 L 23.05 25.65 L 23.17 25.5 L 23.25 25.4 L 23.35 25.27 L 23.45 25.16 L 23.56 25.03 L 23.65 24.93 L 23.77 24.79 L 23.86 24.7 L 23.98 24.57 L 24.06 24.49 C 24.17 24.38 24.27 24.27 24.38 24.17 L 24.52 24.04 L 24.61 23.96 L 24.75 23.83 L 24.84 23.75 L 24.98 23.63 L 25.07 23.55 L 25.22 23.43 L 25.31 23.36 L 25.46 23.24 L 25.54 23.17 L 26.15 22.74 L 26.32 22.63 L 26.42 22.57 L 26.58 22.46 L 26.68 22.4 L 26.85 22.3 L 26.94 22.25 L 27.12 22.14 L 27.21 22.09 L 27.39 21.99 L 27.46 21.99 C 27.68 21.87 27.91 21.75 28.14 21.65 L 28.2 21.65 L 28.39 21.56 L 28.49 21.56 L 28.69 21.48 L 28.77 21.48 L 28.98 21.4 L 29.05 21.4 L 29.27 21.32 L 29.33 21.32 Q 29.85 21.14 30.33 20.99 L 30.39 20.99 L 30.62 20.93 L 30.7 20.93 L 30.92 20.88 L 31.01 20.88 L 31.24 20.83 L 31.31 20.83 L 31.55 20.78 C 31.83 20.73 32.12 20.69 32.41 20.66 L 32.41 0 L 29 0 L 29 7.84 C 28.974 13.378 26.758 18.687 22.839 22.6 C 18.92 26.513 13.608 28.722 8.07 28.74 L 0 28.74 Z M 33 61.85 L 33 52.24 C 32.217 50.894 31.689 49.417 31.44 47.88 L 31.13 47.88 L 30.95 47.83 L 30.53 47.83 L 30.33 47.77 L 30.05 47.67 L 29.88 47.62 L 29.75 47.62 L 29.58 47.56 L 29.45 47.56 L 29.28 47.49 L 29.16 47.44 L 29 47.09 L 28.83 47 L 28.67 47 L 28.54 46.94 L 28.38 46.87 L 28.27 46.81 L 27.94 46.64 L 27.84 46.59 L 27.68 46.5 L 27.57 46.44 L 27.4 46.34 L 27.3 46.28 L 27.14 46.18 L 27 46.08 L 26.85 45.98 L 26.74 45.91 L 26.58 45.8 L 26.5 45.74 L 26 45.32 L 25.93 45.32 L 25.78 45.2 L 25.68 45.12 L 25.5 45 L 25.39 44.91 L 25.26 44.79 L 25.16 44.71 L 25 44.54 L 24.91 44.46 C 24.869 44.414 24.826 44.371 24.78 44.33 L 24.7 44.25 L 24.38 43.93 L 24.25 43.79 L 24.16 43.7 C 24.122 43.649 24.078 43.602 24.03 43.56 L 24 43.45 L 23.87 43.31 L 23.79 43.21 L 23.67 43.06 L 23.56 43 L 23.44 42.84 L 23.38 42.76 C 23.22 42.56 23.08 42.36 22.94 42.16 L 22.82 41.99 L 22.76 41.9 L 22.66 41.73 L 22.6 41.64 C 22.6 41.58 22.53 41.52 22.49 41.47 L 22.44 41.38 L 22.33 41.2 L 22.25 41 L 22.15 40.81 L 22.15 40.75 C 22.03 40.52 21.92 40.3 21.81 40.07 L 21.81 40 C 21.777 39.939 21.751 39.876 21.73 39.81 L 21.68 39.71 C 21.68 39.65 21.63 39.58 21.6 39.52 L 21.6 39.43 C 21.578 39.358 21.551 39.288 21.52 39.22 L 21.52 39.15 C 21.498 39.075 21.471 39.002 21.44 38.93 L 21.44 38.87 C 21.32 38.53 21.21 38.18 21.12 37.87 L 21.12 37.81 L 21.06 37.58 L 21.06 37.51 C 21.06 37.43 21.06 37.36 21.01 37.28 L 21.01 37.2 C 20.999 37.122 20.982 37.045 20.96 36.97 L 20.96 36.89 C 20.955 36.81 20.955 36.73 20.96 36.65 C 20.91 36.36 20.87 36.07 20.84 35.79 L 0.23 35.79 L 0.23 39.79 L 8.08 39.79 C 13.603 39.811 18.9 42.009 22.814 45.905 C 26.729 49.801 28.953 55.088 29 60.61 L 29 69.09 L 58.33 69.09 C 72 70.11 73.79 49 58.94 49 L 48 49 C 47.367 49 46.749 48.799 46.237 48.427 C 45.724 48.055 45.343 47.529 45.147 46.927 C 44.951 46.325 44.951 45.675 45.147 45.073 C 45.343 44.471 45.724 43.945 46.237 43.573 C 46.749 43.201 47.367 43 48 43 L 69 43 L 69 35.74 L 44.22 35.74 C 41.565 35.748 39.019 36.81 37.145 38.69 C 35.27 40.571 34.217 43.12 34.217 45.775 C 34.217 48.43 35.27 50.979 37.145 52.86 C 39.019 54.74 41.565 55.802 44.22 55.81 L 57.28 55.81 C 58.075 55.81 58.839 56.126 59.401 56.689 C 59.964 57.251 60.28 58.015 60.28 58.81 C 60.28 59.605 59.964 60.369 59.401 60.931 C 58.839 61.494 58.075 61.81 57.28 61.81 Z"
                fill="#ffffff"
                stroke-width="1"/>
            <path
                id="path_1"
                d="M 281.21 60.9 C 279.787 60.793 278.356 60.932 276.98 61.31 C 276.684 61.422 276.43 61.622 276.251 61.883 C 276.072 62.144 275.978 62.454 275.98 62.77 C 275.959 63.093 276.046 63.413 276.227 63.681 C 276.408 63.949 276.673 64.149 276.98 64.25 C 278.181 64.579 279.427 64.71 280.67 64.64 C 282.282 64.72 283.898 64.575 285.47 64.21 C 285.834 64.129 286.159 63.924 286.388 63.631 C 286.618 63.337 286.739 62.973 286.73 62.6 C 286.738 62.266 286.634 61.939 286.434 61.671 C 286.235 61.403 285.952 61.209 285.63 61.12 C 284.172 60.928 282.7 60.854 281.23 60.9 M 276.7 56.1 L 270 56.1 C 269.943 54.766 270.388 53.458 271.247 52.435 C 272.105 51.411 273.316 50.746 274.64 50.57 C 277.477 50.064 280.36 49.857 283.24 49.95 C 285.269 49.892 287.3 50.005 289.31 50.29 C 290.332 50.503 291.269 51.015 292 51.76 C 292.598 52.354 293.02 53.101 293.22 53.92 C 293.478 55.139 293.589 56.385 293.55 57.63 L 293.55 68.49 L 287.06 68.49 L 287.06 66.05 L 286.74 66.05 C 286.262 67.068 285.419 67.871 284.38 68.3 C 283.612 68.594 282.802 68.766 281.98 68.81 C 280.98 68.9 279.31 68.95 277.07 68.95 C 275.665 68.986 274.26 68.869 272.88 68.6 C 272.002 68.425 271.187 68.018 270.52 67.42 C 270.039 66.865 269.676 66.218 269.452 65.519 C 269.229 64.819 269.15 64.081 269.22 63.35 C 269.22 61.26 269.73 59.74 270.76 58.82 C 271.678 58.039 272.804 57.542 274 57.39 C 276.455 57.101 278.928 56.988 281.4 57.05 C 282.513 57.009 283.628 57.1 284.72 57.32 C 285.415 57.512 286.035 57.909 286.5 58.46 L 286.8 58.46 L 286.8 57.46 C 286.8 56.05 286.54 55.16 286.02 54.8 C 285.5 54.44 284.21 54.26 282.16 54.26 C 280.658 54.191 279.152 54.285 277.67 54.54 C 277.371 54.665 277.116 54.877 276.938 55.147 C 276.76 55.418 276.667 55.736 276.67 56.06 M 247.07 50.41 L 253.4 50.41 L 253.4 53.12 L 253.76 53.12 C 254.313 52.045 255.211 51.185 256.31 50.68 C 257.726 50.129 259.242 49.88 260.76 49.95 C 263.48 49.95 265.37 50.49 266.45 51.55 C 267.53 52.61 268.05 54.5 268.05 57.21 C 268.05 57.37 268.05 57.78 267.99 58.42 L 261.64 58.42 C 261.691 57.668 261.579 56.914 261.31 56.21 C 260.87 55.42 259.8 55.03 258.09 55.03 C 257.459 54.961 256.821 55.042 256.228 55.268 C 255.635 55.494 255.105 55.858 254.68 56.33 C 254.31 56.817 254.076 57.393 254 58 C 253.856 58.993 253.796 59.997 253.82 61 L 253.82 68.49 L 247.07 68.49 Z M 244.01 68.41 L 237.68 68.41 L 237.68 65.78 L 237.31 65.78 C 237.069 66.336 236.721 66.838 236.285 67.259 C 235.849 67.679 235.334 68.009 234.77 68.23 C 233.106 68.786 231.353 69.03 229.6 68.95 C 227.918 69.001 226.236 68.827 224.6 68.43 C 223.447 68.125 222.395 67.521 221.55 66.68 C 220.794 65.905 220.259 64.941 220 63.89 C 219.689 62.175 219.561 60.432 219.62 58.69 L 219.62 50.45 L 226.37 50.45 L 226.37 58.69 C 226.342 59.634 226.403 60.578 226.55 61.51 C 226.66 62.033 226.921 62.513 227.3 62.89 C 227.718 63.282 228.238 63.548 228.8 63.66 C 229.743 63.836 230.702 63.91 231.66 63.88 C 233.83 63.88 235.31 63.54 236.09 62.88 C 236.586 62.455 236.936 61.885 237.09 61.25 C 237.279 60.083 237.356 58.901 237.32 57.72 L 237.32 50.45 L 244 50.45 Z M 204.7 55.07 Q 200.46 55.07 199.47 55.92 C 198.82 56.5 198.47 57.74 198.47 59.67 C 198.437 60.457 198.531 61.244 198.75 62 C 198.921 62.509 199.278 62.934 199.75 63.19 C 200.54 63.65 202.12 63.88 204.51 63.88 C 206.9 63.88 208.6 63.63 209.35 63.13 C 209.787 62.827 210.094 62.369 210.21 61.85 C 210.397 60.98 210.474 60.089 210.44 59.2 C 210.478 58.394 210.386 57.587 210.17 56.81 C 209.965 56.314 209.584 55.911 209.1 55.68 C 207.697 55.178 206.206 54.971 204.72 55.07 M 191.74 76 L 191.74 50.45 L 198.11 50.45 L 198.11 52.89 L 198.47 52.89 C 199.006 51.811 199.949 50.987 201.09 50.6 C 202.929 50.116 204.83 49.91 206.73 49.99 C 208.558 49.948 210.385 50.102 212.18 50.45 C 213.339 50.69 214.417 51.223 215.31 52 C 216.054 52.69 216.57 53.59 216.79 54.58 C 217.097 56.228 217.224 57.905 217.17 59.58 C 217.191 60.776 217.134 61.972 217 63.16 C 216.893 63.964 216.681 64.751 216.37 65.5 C 216.1 66.146 215.691 66.724 215.173 67.194 C 214.655 67.664 214.039 68.014 213.37 68.22 C 211.105 68.825 208.762 69.081 206.42 68.98 C 204.733 69.051 203.045 68.852 201.42 68.39 C 200.326 67.986 199.411 67.206 198.84 66.19 L 198.52 66.19 L 198.52 76 Z M 176.44 60.9 C 175.02 60.792 173.592 60.931 172.22 61.31 C 171.923 61.421 171.668 61.621 171.489 61.882 C 171.31 62.143 171.216 62.453 171.22 62.77 C 171.201 63.092 171.289 63.412 171.469 63.679 C 171.65 63.947 171.914 64.147 172.22 64.25 C 173.417 64.579 174.66 64.711 175.9 64.64 C 177.512 64.721 179.128 64.576 180.7 64.21 C 181.071 64.137 181.405 63.936 181.643 63.642 C 181.881 63.347 182.007 62.978 182 62.6 C 182.008 62.266 181.904 61.939 181.704 61.671 C 181.505 61.403 181.222 61.209 180.9 61.12 C 179.438 60.928 177.964 60.854 176.49 60.9 M 171.96 56.1 L 165.24 56.1 C 165.249 54.977 165.556 53.876 166.13 52.91 C 167.048 51.69 168.39 50.855 169.89 50.57 C 172.727 50.064 175.61 49.856 178.49 49.95 C 180.519 49.892 182.55 50.005 184.56 50.29 C 185.606 50.492 186.568 51.005 187.32 51.76 C 187.915 52.356 188.336 53.103 188.54 53.92 C 188.794 55.14 188.901 56.385 188.86 57.63 L 188.86 68.49 L 182.38 68.49 L 182.38 66.05 L 182 66.05 C 181.518 67.068 180.672 67.871 179.63 68.3 C 178.862 68.595 178.052 68.768 177.23 68.81 C 176.23 68.9 174.57 68.95 172.32 68.95 C 170.918 68.986 169.516 68.868 168.14 68.6 C 167.258 68.427 166.44 68.019 165.77 67.42 C 165.289 66.865 164.926 66.218 164.702 65.519 C 164.479 64.819 164.4 64.081 164.47 63.35 C 164.47 61.26 164.99 59.74 166.02 58.82 C 166.935 58.041 168.058 57.544 169.25 57.39 C 171.709 57.101 174.185 56.988 176.66 57.05 C 177.773 57.01 178.888 57.1 179.98 57.32 C 180.671 57.515 181.287 57.912 181.75 58.46 L 182.05 58.46 L 182.05 57.46 C 182.05 56.05 181.79 55.16 181.27 54.8 C 180.75 54.44 179.47 54.26 177.42 54.26 C 175.918 54.191 174.412 54.285 172.93 54.54 C 172.633 54.668 172.381 54.881 172.203 55.151 C 172.026 55.421 171.931 55.737 171.93 56.06 M 137.68 43.05 L 144.43 43.05 L 144.43 53.2 L 144.73 53.2 C 145.266 52.086 146.196 51.209 147.34 50.74 C 148.943 50.171 150.641 49.917 152.34 49.99 C 153.963 49.945 155.584 50.12 157.16 50.51 C 158.297 50.807 159.334 51.404 160.16 52.24 C 160.91 53.01 161.447 53.961 161.72 55 C 162.038 56.552 162.172 58.136 162.12 59.72 L 162.12 68.51 L 155.37 68.51 L 155.37 59.7 C 155.393 58.91 155.34 58.12 155.21 57.34 C 155.133 56.887 154.924 56.466 154.61 56.13 C 153.96 55.42 152.48 55.07 150.16 55.07 C 147.84 55.07 146.22 55.45 145.45 56.22 C 145.036 56.639 144.754 57.172 144.64 57.75 C 144.474 58.741 144.403 59.746 144.43 60.75 L 144.43 68.46 L 137.68 68.46 Z M 122.21 55 C 119.56 55 117.86 55.25 117.11 55.77 C 116.36 56.29 116 57.46 116 59.25 C 115.954 60.235 116.069 61.222 116.34 62.17 C 116.448 62.451 116.616 62.706 116.831 62.917 C 117.047 63.127 117.306 63.289 117.59 63.39 C 118.966 63.79 120.399 63.956 121.83 63.88 C 124.33 63.88 126 63.61 126.83 63.09 C 127.254 62.809 127.561 62.382 127.69 61.89 C 127.886 61.102 127.971 60.291 127.94 59.48 C 127.987 58.564 127.872 57.646 127.6 56.77 C 127.504 56.492 127.347 56.238 127.141 56.027 C 126.936 55.816 126.686 55.653 126.41 55.55 C 125.06 55.126 123.643 54.949 122.23 55.03 M 134.65 43.03 L 134.65 68.49 L 128.28 68.49 L 128.28 66.13 L 127.92 66.13 C 127.557 66.828 127.019 67.421 126.36 67.85 C 125.12 68.59 122.98 68.95 119.96 68.95 C 118.074 68.998 116.187 68.854 114.33 68.52 C 113.163 68.304 112.075 67.779 111.18 67 C 110.415 66.283 109.882 65.352 109.65 64.33 C 109.32 62.685 109.179 61.007 109.23 59.33 C 109.209 58.076 109.29 56.822 109.47 55.58 C 109.6 54.713 109.866 53.873 110.26 53.09 C 110.649 52.4 111.186 51.804 111.833 51.346 C 112.48 50.888 113.22 50.578 114 50.44 C 115.975 50.052 117.988 49.887 120 49.95 C 121.718 49.864 123.439 50.066 125.09 50.55 C 126.173 50.99 127.061 51.807 127.59 52.85 L 127.87 52.85 L 127.87 43.05 Z M 94.26 55 C 91.61 55 89.91 55.25 89.16 55.77 C 88.41 56.29 88 57.46 88 59.25 C 87.954 60.235 88.069 61.222 88.34 62.17 C 88.448 62.451 88.616 62.706 88.831 62.917 C 89.047 63.127 89.306 63.289 89.59 63.39 C 90.966 63.79 92.399 63.955 93.83 63.88 C 96.33 63.88 98 63.61 98.83 63.09 C 99.259 62.814 99.567 62.385 99.69 61.89 C 99.886 61.102 99.971 60.291 99.94 59.48 C 99.987 58.564 99.872 57.646 99.6 56.77 C 99.501 56.495 99.345 56.243 99.141 56.033 C 98.938 55.822 98.692 55.658 98.42 55.55 C 97.077 55.119 95.668 54.933 94.26 55 M 106.68 43 L 106.68 68.49 L 100.32 68.49 L 100.32 66.13 L 100 66.13 C 99.637 66.828 99.099 67.421 98.44 67.85 C 97.15 68.59 95 69 92 69 C 90.114 69.048 88.227 68.904 86.37 68.57 C 85.204 68.34 84.122 67.797 83.24 67 C 82.469 66.286 81.932 65.355 81.7 64.33 C 81.37 62.685 81.229 61.007 81.28 59.33 C 81.259 58.076 81.34 56.822 81.52 55.58 C 81.65 54.713 81.916 53.873 82.31 53.09 C 82.694 52.405 83.223 51.813 83.861 51.356 C 84.498 50.898 85.229 50.585 86 50.44 C 87.975 50.052 89.988 49.888 92 49.95 C 93.718 49.863 95.439 50.065 97.09 50.55 C 98.173 50.99 99.061 51.807 99.59 52.85 L 99.87 52.85 L 99.87 43.05 Z M 72 43.05 L 78.75 43.05 L 78.75 48.12 L 72 48.12 Z M 72 50.45 L 78.75 50.45 L 78.75 68.45 L 72 68.45 Z M 34.47 23.15 C 37.159 23.155 39.756 24.135 41.778 25.907 C 43.8 27.679 45.112 30.125 45.47 32.79 L 44.22 32.79 C 40.924 32.782 37.745 34.028 35.332 36.274 C 32.919 38.52 31.448 41.602 31.22 44.89 C 28.674 44.116 26.488 42.453 25.064 40.205 C 23.641 37.956 23.071 35.27 23.459 32.637 C 23.848 30.004 25.17 27.597 27.183 25.856 C 29.196 24.116 31.769 23.155 34.43 23.15"
                fill="#ffffff"
                stroke-width="1"/>
            <path
                id="path_2"
                d="M 34.47 23.15 C 37.159 23.155 39.756 24.135 41.778 25.907 C 43.8 27.679 45.112 30.125 45.47 32.79 L 44.22 32.79 C 40.924 32.782 37.745 34.028 35.332 36.274 C 32.919 38.52 31.448 41.602 31.22 44.89 C 28.674 44.116 26.488 42.453 25.064 40.205 C 23.641 37.956 23.071 35.27 23.459 32.637 C 23.848 30.004 25.17 27.597 27.183 25.856 C 29.196 24.116 31.769 23.155 34.43 23.15"
                fill="#f8b232"
                stroke-width="1"
                fill-rule="evenodd"/>
            <path
                id="path_3"
                d="M 301.32 61.82 C 301.764 61.816 302.204 61.903 302.613 62.075 C 303.022 62.247 303.392 62.501 303.7 62.82 C 304.009 63.129 304.254 63.496 304.42 63.9 C 304.583 64.3 304.668 64.728 304.67 65.16 C 304.67 65.602 304.585 66.04 304.42 66.45 C 304.251 66.849 304.003 67.21 303.69 67.51 C 303.372 67.819 302.999 68.067 302.59 68.24 C 302.188 68.409 301.756 68.498 301.32 68.5 C 300.881 68.498 300.448 68.409 300.044 68.237 C 299.64 68.066 299.275 67.815 298.97 67.5 C 298.655 67.197 298.405 66.833 298.233 66.431 C 298.061 66.029 297.972 65.597 297.97 65.16 C 297.97 64.722 298.062 64.29 298.24 63.89 C 298.409 63.474 298.661 63.096 298.98 62.78 C 299.276 62.472 299.634 62.231 300.03 62.07 C 300.434 61.908 300.865 61.827 301.3 61.83 M 304.21 65.2 C 304.215 64.81 304.143 64.423 304 64.06 C 303.859 63.713 303.652 63.398 303.39 63.13 C 303.118 62.855 302.794 62.637 302.437 62.489 C 302.08 62.341 301.697 62.267 301.31 62.27 C 300.929 62.266 300.551 62.341 300.2 62.49 C 299.857 62.628 299.548 62.836 299.29 63.1 C 299.009 63.386 298.788 63.727 298.64 64.1 C 298.49 64.451 298.412 64.828 298.41 65.21 C 298.407 65.581 298.482 65.949 298.63 66.29 C 298.778 66.64 298.992 66.959 299.26 67.23 C 299.527 67.504 299.847 67.722 300.2 67.87 C 300.544 68.021 300.915 68.099 301.29 68.1 C 301.671 68.098 302.047 68.023 302.4 67.88 C 302.769 67.733 303.108 67.52 303.4 67.25 C 303.668 66.989 303.879 66.676 304.02 66.33 C 304.168 65.986 304.243 65.615 304.24 65.24 M 301.42 63.24 C 301.83 63.215 302.239 63.305 302.6 63.5 C 302.731 63.581 302.838 63.697 302.908 63.834 C 302.979 63.972 303.01 64.126 303 64.28 C 303.008 64.524 302.926 64.762 302.77 64.95 C 302.605 65.132 302.382 65.252 302.14 65.29 L 303 67 L 302.2 67 L 301.43 65.39 L 300.73 65.39 L 300.73 67 L 300 67 L 300 63.2 Z M 301.29 63.7 L 300.71 63.7 L 300.71 64.95 L 301.31 64.95 C 301.562 64.973 301.815 64.925 302.04 64.81 C 302.116 64.761 302.178 64.693 302.219 64.612 C 302.259 64.531 302.277 64.44 302.27 64.35 C 302.278 64.255 302.261 64.16 302.221 64.074 C 302.18 63.988 302.118 63.914 302.04 63.86 C 301.811 63.734 301.55 63.679 301.29 63.7 M 74.21 90.32 L 74.21 91.36 L 69.2 91.36 L 69.2 84.68 L 74.08 84.68 L 74.08 85.72 L 70.44 85.72 L 70.44 87.46 L 73.67 87.46 L 73.67 88.48 L 70.44 88.48 L 70.44 90.32 L 74.21 90.32 Z M 85.15 84.68 L 85.15 91.36 L 84.13 91.36 L 80.45 86.84 L 80.45 91.36 L 79.22 91.36 L 79.22 84.68 L 80.24 84.68 L 83.92 89.2 L 83.92 84.68 L 85.15 84.68 Z M 95.13 87.94 L 96.3 87.94 L 96.3 90.6 C 95.943 90.884 95.536 91.097 95.1 91.23 C 94.645 91.378 94.169 91.452 93.69 91.45 C 93.049 91.457 92.416 91.302 91.85 91 C 91.314 90.718 90.867 90.292 90.56 89.77 C 90.252 89.235 90.09 88.628 90.09 88.01 C 90.09 87.392 90.252 86.785 90.56 86.25 C 90.864 85.72 91.311 85.287 91.85 85 C 92.419 84.699 93.056 84.548 93.7 84.56 C 94.222 84.553 94.741 84.645 95.23 84.83 C 95.671 85.008 96.064 85.285 96.38 85.64 L 95.6 86.41 C 95.362 86.163 95.076 85.967 94.76 85.834 C 94.443 85.702 94.103 85.636 93.76 85.64 C 93.325 85.631 92.894 85.734 92.51 85.94 C 92.151 86.13 91.852 86.418 91.65 86.77 C 91.447 87.141 91.34 87.557 91.34 87.98 C 91.34 88.403 91.447 88.819 91.65 89.19 C 91.852 89.545 92.15 89.837 92.51 90.03 C 92.89 90.238 93.317 90.344 93.75 90.34 C 94.232 90.351 94.708 90.234 95.13 90 Z M 101.55 84.68 L 102.79 84.68 L 102.79 91.36 L 101.55 91.36 Z M 114.15 84.68 L 114.15 91.36 L 113.13 91.36 L 109.45 86.84 L 109.45 91.36 L 108.22 91.36 L 108.22 84.68 L 109.24 84.68 L 112.92 89.2 L 112.92 84.68 L 114.15 84.68 Z M 124.57 90.32 L 124.57 91.36 L 119.57 91.36 L 119.57 84.68 L 124.44 84.68 L 124.44 85.72 L 120.81 85.72 L 120.81 87.46 L 124.03 87.46 L 124.03 88.48 L 120.81 88.48 L 120.81 90.32 L 124.57 90.32 Z M 134.59 90.32 L 134.59 91.36 L 129.58 91.36 L 129.58 84.68 L 134.45 84.68 L 134.45 85.72 L 130.82 85.72 L 130.82 87.46 L 134.04 87.46 L 134.04 88.48 L 130.82 88.48 L 130.82 90.32 L 134.59 90.32 Z M 144 91.36 L 142.64 89.36 L 140.87 89.36 L 140.87 91.36 L 139.63 91.36 L 139.63 84.68 L 142.38 84.68 C 142.898 84.67 143.413 84.769 143.89 84.97 C 144.299 85.136 144.647 85.422 144.89 85.79 C 145.119 86.178 145.239 86.62 145.239 87.07 C 145.239 87.52 145.119 87.962 144.89 88.35 C 144.633 88.727 144.261 89.011 143.83 89.16 L 145.37 91.36 Z M 143.55 86.07 C 143.188 85.825 142.756 85.706 142.32 85.73 L 140.87 85.73 L 140.87 88.39 L 142.32 88.39 C 142.759 88.424 143.195 88.3 143.55 88.04 C 143.733 87.869 143.865 87.65 143.933 87.409 C 144 87.168 144 86.912 143.933 86.671 C 143.865 86.43 143.733 86.211 143.55 86.04 M 155.2 90.32 L 155.2 91.36 L 150.19 91.36 L 150.19 84.68 L 155.06 84.68 L 155.06 85.72 L 151.43 85.72 L 151.43 87.46 L 154.65 87.46 L 154.65 88.48 L 151.43 88.48 L 151.43 90.32 L 155.2 90.32 Z M 160.2 84.68 L 163.12 84.68 C 163.778 84.667 164.429 84.811 165.02 85.1 C 165.556 85.354 166.005 85.761 166.31 86.27 C 166.605 86.806 166.76 87.408 166.76 88.02 C 166.76 88.632 166.605 89.234 166.31 89.77 C 165.995 90.278 165.54 90.684 165 90.94 C 164.409 91.229 163.758 91.373 163.1 91.36 L 160.2 91.36 Z M 163.06 90.31 C 163.509 90.315 163.953 90.219 164.36 90.03 C 164.715 89.851 165.01 89.573 165.21 89.23 C 165.407 88.857 165.51 88.442 165.51 88.02 C 165.51 87.598 165.407 87.183 165.21 86.81 C 165.01 86.467 164.715 86.189 164.36 86.01 C 163.955 85.816 163.509 85.72 163.06 85.73 L 161.44 85.73 L 161.44 90.31 Z M 179.2 85.72 L 179.2 87.75 L 182.42 87.75 L 182.42 88.8 L 179.2 88.8 L 179.2 91.36 L 177.96 91.36 L 177.96 84.68 L 182.83 84.68 L 182.83 85.72 L 179.2 85.72 Z M 188.86 91 C 188.326 90.715 187.88 90.29 187.57 89.77 C 187.269 89.232 187.11 88.626 187.11 88.01 C 187.11 87.394 187.269 86.788 187.57 86.25 C 187.877 85.723 188.323 85.29 188.86 85 C 189.43 84.711 190.061 84.56 190.7 84.56 C 191.339 84.56 191.97 84.711 192.54 85 C 193.073 85.281 193.52 85.703 193.83 86.22 C 194.146 86.759 194.309 87.375 194.3 88 C 194.307 88.619 194.145 89.227 193.83 89.76 C 193.525 90.286 193.078 90.716 192.54 91 C 191.97 91.289 191.339 91.44 190.7 91.44 C 190.061 91.44 189.43 91.289 188.86 91 M 191.86 90 C 192.214 89.809 192.505 89.521 192.7 89.17 C 192.91 88.802 193.017 88.384 193.01 87.96 C 193.018 87.536 192.911 87.118 192.7 86.75 C 192.506 86.396 192.214 86.104 191.86 85.91 C 191.493 85.706 191.079 85.602 190.66 85.61 C 190.241 85.605 189.827 85.708 189.46 85.91 C 189.106 86.104 188.814 86.396 188.62 86.75 C 188.417 87.121 188.314 87.538 188.32 87.96 C 188.315 88.382 188.418 88.799 188.62 89.17 C 188.815 89.521 189.106 89.809 189.46 90 C 189.825 90.21 190.239 90.317 190.66 90.31 C 191.081 90.319 191.496 90.212 191.86 90 M 203.6 91.36 L 202.24 89.36 L 200.48 89.36 L 200.48 91.36 L 199.24 91.36 L 199.24 84.68 L 202 84.68 C 202.518 84.67 203.033 84.769 203.51 84.97 C 203.919 85.136 204.267 85.422 204.51 85.79 C 204.739 86.178 204.859 86.62 204.859 87.07 C 204.859 87.52 204.739 87.962 204.51 88.35 C 204.253 88.727 203.881 89.011 203.45 89.16 L 204.99 91.36 Z M 203.16 86.07 C 202.798 85.825 202.366 85.706 201.93 85.73 L 200.48 85.73 L 200.48 88.39 L 201.93 88.39 C 202.369 88.424 202.805 88.3 203.16 88.04 C 203.343 87.869 203.475 87.65 203.543 87.409 C 203.61 87.168 203.61 86.912 203.543 86.671 C 203.475 86.43 203.343 86.211 203.16 86.04 M 217.44 85.73 L 215.23 85.73 L 215.23 84.68 L 220.89 84.68 L 220.89 85.73 L 218.68 85.73 L 218.68 91.36 L 217.44 91.36 L 217.44 85.73 Z M 229.82 91.36 L 228.46 89.36 L 226.69 89.36 L 226.69 91.36 L 225.45 91.36 L 225.45 84.68 L 228.2 84.68 C 228.718 84.67 229.233 84.769 229.71 84.97 C 230.119 85.136 230.467 85.422 230.71 85.79 C 230.946 86.17 231.064 86.612 231.05 87.06 C 231.064 87.518 230.935 87.969 230.68 88.35 C 230.442 88.72 230.091 89.004 229.68 89.16 L 231.22 91.36 Z M 229.37 86.07 C 229.008 85.825 228.576 85.706 228.14 85.73 L 226.69 85.73 L 226.69 88.39 L 228.14 88.39 C 228.579 88.424 229.015 88.3 229.37 88.04 C 229.553 87.869 229.685 87.65 229.753 87.409 C 229.82 87.168 229.82 86.912 229.753 86.671 C 229.685 86.43 229.553 86.211 229.37 86.04 M 236.76 90.68 C 236.488 90.38 236.279 90.027 236.147 89.644 C 236.014 89.261 235.961 88.854 235.99 88.45 L 235.99 84.68 L 237.23 84.68 L 237.23 88.4 C 237.23 89.71 237.79 90.4 238.93 90.4 C 240.07 90.4 240.62 89.74 240.62 88.4 L 240.62 84.68 L 241.84 84.68 L 241.84 88.45 C 241.869 88.854 241.816 89.261 241.683 89.644 C 241.551 90.027 241.342 90.38 241.07 90.68 C 240.782 90.947 240.443 91.152 240.074 91.285 C 239.704 91.417 239.312 91.473 238.92 91.45 C 238.127 91.489 237.349 91.212 236.76 90.68 M 247.77 91.23 C 247.353 91.121 246.964 90.923 246.63 90.65 L 247.06 89.65 C 247.363 89.879 247.701 90.058 248.06 90.18 C 248.443 90.31 248.845 90.378 249.25 90.38 C 249.638 90.406 250.026 90.323 250.37 90.14 C 250.481 90.077 250.573 89.985 250.637 89.874 C 250.7 89.764 250.732 89.638 250.73 89.51 C 250.731 89.422 250.714 89.335 250.68 89.254 C 250.645 89.173 250.594 89.1 250.53 89.04 C 250.377 88.91 250.201 88.812 250.01 88.75 C 249.8 88.68 249.51 88.6 249.15 88.51 C 248.73 88.416 248.315 88.296 247.91 88.15 C 247.598 88.028 247.32 87.833 247.1 87.58 C 246.875 87.296 246.758 86.942 246.77 86.58 C 246.77 86.224 246.874 85.877 247.07 85.58 C 247.295 85.259 247.608 85.009 247.97 84.86 C 248.441 84.677 248.944 84.588 249.45 84.6 C 249.858 84.6 250.264 84.651 250.66 84.75 C 251.015 84.841 251.353 84.99 251.66 85.19 L 251.27 86.19 C 250.98 86.023 250.671 85.892 250.35 85.8 C 250.051 85.715 249.741 85.671 249.43 85.67 C 249.048 85.643 248.666 85.726 248.33 85.91 C 248.22 85.981 248.131 86.079 248.07 86.195 C 248.008 86.31 247.978 86.439 247.98 86.57 C 247.976 86.658 247.992 86.746 248.027 86.828 C 248.061 86.909 248.114 86.982 248.18 87.04 C 248.333 87.17 248.509 87.268 248.7 87.33 C 248.91 87.4 249.2 87.47 249.56 87.56 C 249.973 87.657 250.381 87.777 250.78 87.92 C 251.094 88.039 251.372 88.235 251.59 88.49 C 251.823 88.77 251.944 89.126 251.93 89.49 C 251.933 89.846 251.829 90.195 251.63 90.49 C 251.405 90.815 251.088 91.065 250.72 91.21 C 250.246 91.395 249.739 91.484 249.23 91.47 C 248.725 91.472 248.223 91.398 247.74 91.25 M 258.08 85.73 L 255.86 85.73 L 255.86 84.68 L 261.53 84.68 L 261.53 85.73 L 259.32 85.73 L 259.32 91.36 L 258.08 91.36 L 258.08 85.73 Z"
                fill="#ffffff"
                stroke-width="1"/>
        </g>
    </g>
</svg>
