<svg
    xmlns="http://www.w3.org/2000/svg"
    viewBox="0 0 128 128"
    id="vector">
    <g id="group_1">
        <g id="group">
            <path
                id="path"
                d="M 74.38 125.23 C 87.11 123.125 98.865 117.082 107.986 107.956 C 117.106 98.83 123.142 87.071 125.24 74.34 L 112.59 74.34 C 102.469 74.369 92.76 78.407 85.604 85.564 C 78.447 92.72 74.409 102.429 74.38 112.55 Z M 54.31 3.47 C 41.593 5.569 29.847 11.599 20.731 20.711 C 11.614 29.822 5.576 41.564 3.47 54.28 L 16.1 54.28 C 26.221 54.251 35.93 50.213 43.086 43.056 C 50.243 35.9 54.281 26.191 54.31 16.07 Z M 108 20.72 C 98.881 11.588 87.116 5.552 74.38 3.47 L 74.38 16.07 C 74.409 26.191 78.447 35.9 85.604 43.056 C 92.76 50.213 102.469 54.251 112.59 54.28 L 125.22 54.28 C 123.136 41.568 117.111 29.826 108 20.72 M 54.31 125.23 L 54.31 112.55 C 54.281 102.429 50.243 92.72 43.086 85.564 C 35.93 78.407 26.221 74.369 16.1 74.34 L 3.46 74.34 C 5.555 87.071 11.588 98.83 20.707 107.957 C 29.826 117.083 41.581 123.125 54.31 125.23 M 2.71 67.05 L 38.91 67.05 L 38.91 67.85 C 38.91 68.08 38.98 68.31 39.02 68.54 L 39.02 68.72 C 39.02 68.84 39.02 68.96 39.09 69.08 L 39.09 69.31 C 39.09 69.43 39.14 69.54 39.16 69.66 L 39.21 69.88 C 39.21 70 39.21 70.12 39.29 70.23 L 39.35 70.46 C 39.35 70.57 39.35 70.68 39.43 70.79 L 39.5 71.03 L 39.59 71.37 L 39.65 71.55 L 39.75 71.92 C 39.81 72.09 39.86 72.26 39.92 72.44 L 40.03 72.74 L 40.12 72.99 C 40.12 73.09 40.19 73.2 40.23 73.3 L 40.32 73.53 L 40.44 73.84 L 40.53 74.06 L 40.67 74.38 L 40.77 74.6 C 40.77 74.7 40.85 74.8 40.9 74.9 L 41.01 75.13 C 41.051 75.229 41.097 75.326 41.15 75.42 L 41.25 75.63 C 41.35 75.83 41.45 76.03 41.56 76.23 L 41.65 76.41 L 41.82 76.71 L 41.93 76.91 L 42.11 77.22 L 42.21 77.4 C 42.27 77.5 42.33 77.6 42.4 77.7 L 42.52 77.89 L 42.7 78.18 L 42.83 78.37 L 43.02 78.66 L 43.13 78.82 C 43.38 79.18 43.63 79.53 43.9 79.87 L 43.99 80 L 44.21 80.27 L 44.36 80.45 L 44.56 80.69 L 44.73 80.9 L 44.94 81.14 L 45.09 81.31 C 45.17 81.39 45.24 81.48 45.32 81.57 L 45.48 81.73 L 45.71 81.98 L 45.85 82.12 C 46.04 82.32 46.23 82.51 46.43 82.7 L 46.68 82.94 L 46.85 83.09 L 47.11 83.32 L 47.27 83.47 L 47.53 83.69 L 47.71 83.84 L 47.97 84.06 L 48.13 84.19 L 48.42 84.42 L 48.56 84.53 L 49.66 85.33 L 49.75 85.39 L 50.06 85.6 L 50.23 85.71 L 50.53 85.9 L 50.71 86.01 L 51.02 86.2 L 51.19 86.3 L 51.52 86.49 L 51.68 86.58 L 52.01 86.76 L 52.14 86.83 C 52.55 87.05 52.96 87.25 53.38 87.45 L 53.49 87.45 L 53.84 87.61 L 54.03 87.69 L 54.38 87.84 L 54.54 87.9 L 54.92 88.05 L 55.05 88.05 L 55.45 88.2 L 55.57 88.2 C 56.19 88.42 56.83 88.62 57.48 88.79 L 57.59 88.79 L 58.01 88.9 L 58.15 88.9 L 58.56 89 L 58.72 89 L 59.13 89.09 L 59.27 89.09 L 59.71 89.17 C 60.23 89.26 60.71 89.34 61.28 89.4 L 61.33 89.4 L 61.33 126 C 62.24 126 63.16 126.06 64.08 126.06 C 65 126.06 65.91 126.06 66.82 126 L 66.82 89.71 C 67.35 89.65 67.88 89.57 68.39 89.48 L 68.44 89.48 L 68.89 89.4 L 69.02 89.4 L 69.44 89.31 L 69.59 89.31 L 70.01 89.21 L 70.14 89.21 L 70.56 89.1 L 71 89 C 71.64 88.83 72.28 88.63 72.91 88.41 L 73.02 88.41 L 73.42 88.26 L 73.55 88.26 L 73.94 88.11 L 74.09 88.05 L 74.45 87.9 L 74.63 87.82 L 74.98 87.66 L 75.09 87.66 C 75.51 87.46 75.93 87.26 76.34 87.04 L 76.46 86.97 L 76.8 86.79 L 76.96 86.7 L 77.29 86.51 L 77.45 86.41 L 77.77 86.22 L 77.94 86.11 L 78.24 85.92 L 78.41 85.81 L 78.73 85.6 L 78.81 85.54 L 79.91 84.74 L 80.06 84.63 L 80.34 84.4 L 80.5 84.27 L 80.77 84.05 L 80.95 83.9 L 81.2 83.68 L 81.37 83.53 L 81.63 83.3 L 81.79 83.15 L 82.04 82.91 C 82.24 82.72 82.43 82.53 82.62 82.33 L 82.77 82.19 L 83 81.94 L 83.15 81.78 L 83.38 81.52 L 83.54 81.35 L 83.75 81.11 L 83.92 80.9 L 84.12 80.66 L 84.26 80.48 L 84.48 80.21 L 84.57 80.08 C 84.84 79.74 85.1 79.39 85.34 79.03 L 85.46 78.87 L 85.65 78.58 L 85.78 78.39 L 85.96 78.1 L 86.08 77.91 L 86.26 77.61 L 86.37 77.43 L 86.55 77.12 L 86.66 76.92 L 86.82 76.62 L 86.92 76.44 L 87.23 75.84 L 87.33 75.63 C 87.38 75.54 87.42 75.44 87.47 75.34 L 87.58 75.11 L 87.71 74.81 L 87.81 74.59 C 87.81 74.48 87.9 74.38 87.94 74.27 L 88.03 74.05 L 88.15 73.74 L 88.24 73.51 L 88.36 73.2 L 88.44 72.95 C 88.44 72.85 88.52 72.75 88.55 72.65 C 88.61 72.47 88.66 72.3 88.72 72.13 C 88.78 71.96 88.79 71.88 88.83 71.76 L 88.88 71.58 C 88.88 71.46 88.95 71.35 88.98 71.24 L 89.04 71 L 89.13 70.67 L 89.13 70.44 C 89.162 70.325 89.189 70.208 89.21 70.09 L 89.21 69.87 C 89.21 69.75 89.21 69.64 89.28 69.52 L 89.28 69.29 L 89.34 68.93 L 89.34 68.75 C 89.34 68.52 89.41 68.29 89.44 68.06 L 89.44 67.8 L 89.44 67.26 L 126 67.26 Q 126.06 65.91 126.06 64.56 C 126.06 63.63 126.06 62.7 126 61.78 L 89.78 61.78 L 89.78 61.57 L 89.78 61.24 L 89.78 60.98 C 89.78 60.75 89.71 60.52 89.68 60.29 L 89.68 60.11 L 89.62 59.75 L 89.62 59.52 C 89.62 59.4 89.62 59.29 89.55 59.17 L 89.55 58.95 C 89.529 58.832 89.502 58.715 89.47 58.6 L 89.47 58.37 L 89.38 58.04 L 89 57.59 C 89 57.48 88.94 57.37 88.9 57.25 L 88.85 57.07 C 88.85 56.95 88.78 56.83 88.74 56.7 C 88.7 56.57 88.63 56.36 88.57 56.19 C 88.57 56.09 88.5 55.99 88.46 55.89 L 88.38 55.64 L 88.26 55.33 L 88.17 55.1 L 88.05 54.79 L 88 54.56 C 88 54.45 87.91 54.35 87.87 54.24 L 87.77 54.02 L 87.64 53.72 L 87.53 53.49 C 87.53 53.39 87.44 53.29 87.39 53.2 L 87.29 52.99 L 86.98 52.39 L 86.88 52.21 L 86.72 51.91 L 86.61 51.71 L 86.43 51.4 L 86.32 51.22 L 86.14 50.92 L 86 50.73 L 85.82 50.45 L 85.69 50.25 L 85.51 50 L 85.39 49.84 C 85.15 49.48 84.89 49.13 84.62 48.84 L 84.53 48.72 C 84.46 48.62 84.38 48.53 84.31 48.44 L 84.17 48.26 L 83.97 48.02 L 83.8 47.82 L 83.59 47.57 L 83.43 47.4 L 83.2 47.15 L 83.05 46.98 L 82.82 46.74 L 82.67 46.59 C 82.48 46.39 82.29 46.2 82.09 46.01 L 82.09 45.96 L 81.84 45.72 L 81.68 45.57 L 81.42 45.34 L 81.25 45.19 L 81 44.88 L 80.82 44.73 L 80.55 44.51 L 80.39 44.38 L 80.11 44.15 L 79.91 44 L 78.81 43.2 L 78.73 43.15 L 78.41 43 L 78.24 42.89 L 77.94 42.7 L 77.77 42.59 L 77.45 42.4 L 77.29 42.3 L 77 42.08 L 76.8 42 L 76.46 41.82 L 76.34 41.75 L 75.09 41.13 L 74.98 41.13 L 74.63 40.98 L 74.45 40.9 L 74.09 40.75 L 73.94 40.68 L 73.55 40.53 L 73.42 40.53 L 73.02 40.38 L 72.91 40.38 C 72.28 40.16 71.64 39.96 71 39.79 L 70.88 39.79 L 70.46 39.68 L 70.33 39.68 L 69.91 39.58 L 69.76 39.58 L 69.34 39.49 L 69.21 39.49 L 68.76 39.4 L 68.71 39.4 C 68.2 39.31 67.71 39.23 67.14 39.18 L 67.14 2.71 C 66.23 2.71 65.32 2.65 64.4 2.65 C 63.48 2.65 62.56 2.65 61.65 2.71 L 61.65 38.91 L 61.6 38.91 C 61.07 38.91 60.6 39.04 60.03 39.13 L 59.59 39.22 L 59.45 39.22 L 59.04 39.31 L 58.88 39.31 L 58.47 39.41 L 58.33 39.41 L 57.91 39.52 L 57.8 39.52 C 57.15 39.69 56.51 39.89 55.89 40.11 L 55.77 40.11 L 55.37 40.26 L 55.24 40.26 L 54.86 40.41 L 54.7 40.48 L 54.35 40.63 L 54.16 40.71 L 53.81 40.86 L 53.7 40.86 L 52.46 41.48 L 52.33 41.55 L 51.9 42 L 51.74 42.09 L 51.41 42.28 L 51.24 42.38 L 50.93 42.57 L 50.75 42.68 L 50.45 42.87 L 50.28 42.98 L 49.97 43.2 L 49.88 43.25 L 48.78 44.05 L 48.64 44.16 L 48.35 44.39 L 48.19 44.52 L 47.93 44.74 L 47.75 44.89 L 47.49 45.11 L 47.33 45.26 L 47.07 45.49 L 46.9 45.64 L 46.65 45.88 L 46.65 45.93 C 46.45 46.12 46.26 46.31 46.07 46.51 L 45.93 46.66 L 45.7 46.9 L 45.54 47.07 L 45.31 47.32 L 45.16 47.49 L 44.95 47.74 L 44.78 47.94 L 44.58 48.18 L 44.43 48.36 L 44.21 48.64 L 44.12 48.76 C 43.85 49.1 43.6 49.45 43.35 49.76 L 43.24 49.92 L 43.05 50.21 L 42.92 50.41 L 42.74 50.69 L 42.62 50.88 C 42.55 50.98 42.49 51.08 42.43 51.18 L 42.33 51.36 L 42.15 51.67 L 42.04 51.87 L 41.87 52.17 L 41.78 52.35 C 41.67 52.55 41.57 52.75 41.47 52.95 L 41.37 53.16 C 41.317 53.254 41.271 53.351 41.23 53.45 L 41.12 53.68 C 41.12 53.78 41.03 53.88 40.99 53.98 L 40.89 54.2 L 40.75 54.52 L 40.66 54.74 L 40.54 55.05 L 40.45 55.28 C 40.45 55.39 40.37 55.49 40.34 55.59 L 40.25 55.84 L 40.14 56.14 C 40.08 56.31 40.03 56.48 39.97 56.65 C 39.91 56.82 39.9 56.9 39.87 57.02 L 39.81 57.2 L 39.72 57.54 L 39.65 57.78 C 39.65 57.89 39.59 58 39.57 58.11 L 39.51 58.34 C 39.51 58.45 39.46 58.57 39.43 58.69 L 39.38 58.91 C 39.38 59.03 39.38 59.14 39.31 59.26 L 39.31 59.49 C 39.31 59.61 39.31 59.73 39.24 59.85 L 39.24 60.03 C 39.24 60.26 39.17 60.49 39.13 60.72 L 39 61 L 39 61.54 L 2.72 61.54 C 2.72 62.46 2.65 63.39 2.65 64.32 C 2.65 65.25 2.65 66.12 2.71 67.02 M 64.35 0 C 79.237 -0.002 93.673 5.161 105.182 14.604 C 116.691 24.047 124.575 37.197 127.481 51.798 C 130.387 66.399 128.138 81.565 121.122 94.695 C 114.105 107.824 102.746 118.121 88.992 123.819 C 75.238 129.517 59.925 130.27 45.679 125.949 C 31.432 121.629 19.117 112.496 10.846 100.118 C 2.575 87.74 -1.15 72.867 0.309 58.052 C 1.768 43.237 8.323 29.377 18.85 18.85 C 24.818 12.865 31.91 8.118 39.718 4.883 C 47.527 1.648 55.898 -0.011 64.35 0 M 88.88 71.55 C 88.88 71.67 88.81 71.8 88.77 71.92 M 39.82 57.07 C 39.82 56.95 39.89 56.83 39.92 56.7 M 88.92 57.07 C 88.92 56.95 88.85 56.83 88.81 56.7 M 39.82 71.55 L 39.92 71.92"
                fill="#00334b"
                stroke-width="1"/>
            <path
                id="path_1"
                d="M 64.35 44.05 C 69.732 44.05 74.899 46.19 78.704 49.996 C 82.51 53.801 84.65 58.968 84.65 64.35 C 84.65 69.732 82.51 74.899 78.704 78.704 C 74.899 82.51 69.732 84.65 64.35 84.65 C 58.968 84.65 53.801 82.51 49.996 78.704 C 46.19 74.899 44.05 69.732 44.05 64.35 C 44.05 58.968 46.19 53.801 49.996 49.996 C 53.801 46.19 58.968 44.05 64.35 44.05 Z"
                fill="#00334b"
                stroke-width="1"/>
            <path
                id="path_2"
                d="M 64.35 44.05 C 69.732 44.05 74.899 46.19 78.704 49.996 C 82.51 53.801 84.65 58.968 84.65 64.35 C 84.65 69.732 82.51 74.899 78.704 78.704 C 74.899 82.51 69.732 84.65 64.35 84.65 C 58.968 84.65 53.801 82.51 49.996 78.704 C 46.19 74.899 44.05 69.732 44.05 64.35 C 44.05 58.968 46.19 53.801 49.996 49.996 C 53.801 46.19 58.968 44.05 64.35 44.05"
                fill="#fdb614"
                stroke-width="1"
                fill-rule="evenodd"/>
        </g>
    </g>
</svg>
