<svg xmlns="http://www.w3.org/2000/svg" viewBox="0 0 75.41 59.39"><defs><style>.cls-1{fill:#fff;}</style></defs><title>camera</title><g id="Layer_2" data-name="Layer 2"><g id="Layer_1-2" data-name="Layer 1"><path class="cls-1" d="M46.3,19.57A14.61,14.61,0,1,0,60.91,34.18,14.62,14.62,0,0,0,46.3,19.57Z"/><path class="cls-1" d="M66.62,9H62.34A13.18,13.18,0,0,0,49.85,0h-7.1A13.18,13.18,0,0,0,30.26,9H8.79A8.78,8.78,0,0,0,0,17.77V50.6a8.79,8.79,0,0,0,8.79,8.79H66.62a8.8,8.8,0,0,0,8.79-8.79V17.77A8.79,8.79,0,0,0,66.62,9Zm-55,16.34A5.32,5.32,0,1,1,17,20,5.32,5.32,0,0,1,11.63,25.32ZM46.3,54.65A20.47,20.47,0,1,1,66.77,34.18,20.49,20.49,0,0,1,46.3,54.65Z"/></g></g></svg>