<svg xmlns="http://www.w3.org/2000/svg" viewBox="0 0 19.89 19.87">
    <defs>
        <style>.cls-1{fill:#232743;}</style>
    </defs>
    <title>edit-icon</title>
    <g id="Layer_2" data-name="Layer 2">
        <g id="Layer_1-2" data-name="Layer 1">
            <path class="cls-1"
                d="M2.91,19.87H15.37A2.92,2.92,0,0,0,18.27,17V10.69a.83.83,0,0,0-1.66,0V17a1.26,1.26,0,0,1-1.24,1.26H2.91A1.27,1.27,0,0,1,1.66,17V4.51A1.25,1.25,0,0,1,2.91,3.26H9.14a.83.83,0,0,0,0-1.66H2.91A2.91,2.91,0,0,0,0,4.51V17A2.92,2.92,0,0,0,2.91,19.87Z" />
            <path class="cls-1"
                d="M7.85,8.69l-.65,3a.84.84,0,0,0,.22.77.87.87,0,0,0,.77.22l3-.65a.88.88,0,0,0,.41-.23l7.57-7.57a2.47,2.47,0,0,0,0-3.52h0a2.53,2.53,0,0,0-3.52,0L8.08,8.28A1,1,0,0,0,7.85,8.69Zm9-6.81a.86.86,0,0,1,1.18,0,.85.85,0,0,1,0,1.18l-.59.58L16.23,2.47ZM9.42,9.29l5.63-5.64,1.16,1.16-5.63,5.65-1.49.32Z" />
        </g>
    </g>
</svg>