<svg
    xmlns="http://www.w3.org/2000/svg"
    viewBox="0 0 56 50"
    id="vector">
    <g id="group_1">
        <g id="group">
            <path
                id="path"
                d="M 56.18 21.89 L 56.18 38 C 56.18 39.23 55.42 40.23 54.5 40.23 L 45.9 40.23 C 45.596 40.214 45.302 40.111 45.054 39.934 C 44.806 39.757 44.614 39.513 44.5 39.23 C 44.318 38.845 44.222 38.426 44.22 38 L 44.22 21.89 C 44.215 21.81 44.215 21.73 44.22 21.65 C 44.196 21.168 44.354 20.694 44.664 20.323 C 44.973 19.953 45.411 19.712 45.89 19.65 L 54.49 19.65 C 55.44 19.66 56.18 20.64 56.18 21.89 Z M 55.28 38 L 55.28 21.89 C 55.28 21.1 54.87 20.56 54.5 20.56 L 45.9 20.56 C 45.53 20.56 45.12 21.1 45.12 21.89 L 45.12 38 C 45.12 38.78 45.53 39.33 45.9 39.33 L 54.5 39.33 C 54.87 39.31 55.28 38.76 55.28 38 Z"
                fill="#FFFFFF"
                stroke-width="1"/>
            <path
                id="path_1"
                d="M 55 40.57 L 55 50 L 34.54 50 L 32.08 43.9 L 18 43.9 L 15.49 50 L 0 50 L 0 35.63 L 43.86 35.63 L 43.86 38 C 43.853 38.489 43.963 38.972 44.18 39.41 C 44.33 39.746 44.571 40.034 44.874 40.242 C 45.177 40.45 45.533 40.571 45.9 40.59 Z M 54.1 49.14 L 54.1 41.47 L 45.9 41.47 C 44.25 41.47 43 39.94 43 38 L 43 36.52 L 0.9 36.52 L 0.9 49.14 L 14.9 49.14 L 17.34 43 L 32.69 43 L 35.15 49.14 Z M 53.72 22.11 L 53.72 25.47 L 46.72 25.47 L 46.72 22.11 Z M 52.82 24.57 L 52.82 23 L 47.58 23 L 47.58 24.56 Z M 52 34.4 C 52.445 34.4 52.873 34.577 53.188 34.892 C 53.503 35.207 53.68 35.635 53.68 36.08 C 53.68 36.525 53.503 36.953 53.188 37.268 C 52.873 37.583 52.445 37.76 52 37.76 C 51.555 37.76 51.127 37.583 50.812 37.268 C 50.497 36.953 50.32 36.525 50.32 36.08 C 50.32 35.635 50.497 35.207 50.812 34.892 C 51.127 34.577 51.555 34.4 52 34.4 Z M 52.78 36.08 C 52.78 35.873 52.698 35.675 52.552 35.528 C 52.405 35.382 52.207 35.3 52 35.3 C 51.793 35.3 51.595 35.382 51.448 35.528 C 51.302 35.675 51.22 35.873 51.22 36.08 C 51.22 36.287 51.302 36.485 51.448 36.632 C 51.595 36.778 51.793 36.86 52 36.86 C 52.141 36.865 52.281 36.833 52.405 36.766 C 52.529 36.699 52.633 36.6 52.706 36.48 C 52.779 36.359 52.818 36.221 52.82 36.08 Z M 51.25 27.21 C 51.892 27.445 52.431 27.899 52.772 28.491 C 53.113 29.083 53.235 29.778 53.115 30.451 C 52.996 31.124 52.643 31.734 52.12 32.173 C 51.596 32.612 50.934 32.853 50.25 32.853 C 49.566 32.853 48.904 32.612 48.38 32.173 C 47.857 31.734 47.504 31.124 47.385 30.451 C 47.265 29.778 47.387 29.083 47.728 28.491 C 48.069 27.899 48.608 27.445 49.25 27.21 L 50.12 25.47 L 50.35 25.47 Z M 52.25 29.93 C 52.252 29.496 52.113 29.072 51.853 28.724 C 51.593 28.376 51.227 28.122 50.81 28 L 50.62 28 L 50.27 27.29 L 49.92 28 L 49.72 28.05 C 49.241 28.187 48.83 28.498 48.568 28.922 C 48.306 29.346 48.212 29.853 48.305 30.343 C 48.397 30.833 48.669 31.271 49.067 31.571 C 49.465 31.87 49.961 32.011 50.457 31.964 C 50.954 31.917 51.415 31.687 51.75 31.318 C 52.085 30.949 52.271 30.468 52.27 29.97 Z"
                fill="#FFFFFF"
                stroke-width="1"/>
            <path
                id="path_2"
                d="M 50.27 28.25 C 50.715 28.25 51.143 28.427 51.458 28.742 C 51.773 29.057 51.95 29.485 51.95 29.93 C 51.95 30.375 51.773 30.803 51.458 31.118 C 51.143 31.433 50.715 31.61 50.27 31.61 C 49.825 31.61 49.397 31.433 49.082 31.118 C 48.767 30.803 48.59 30.375 48.59 29.93 C 48.59 29.485 48.767 29.057 49.082 28.742 C 49.397 28.427 49.825 28.25 50.27 28.25 Z M 51 29.93 C 51 29.753 50.94 29.581 50.829 29.443 C 50.718 29.304 50.564 29.208 50.391 29.169 C 50.218 29.13 50.037 29.151 49.878 29.229 C 49.719 29.307 49.59 29.437 49.515 29.597 C 49.439 29.757 49.42 29.938 49.461 30.111 C 49.502 30.283 49.601 30.436 49.74 30.545 C 49.88 30.654 50.053 30.712 50.23 30.71 C 50.366 30.71 50.5 30.674 50.618 30.605 C 50.736 30.537 50.833 30.438 50.9 30.319 C 50.967 30.201 51.002 30.066 51 29.93 Z M 48.35 34.4 C 48.731 34.398 49.102 34.525 49.401 34.761 C 49.7 34.997 49.91 35.328 49.996 35.699 C 50.083 36.07 50.04 36.46 49.876 36.804 C 49.712 37.148 49.436 37.426 49.093 37.592 C 48.75 37.758 48.361 37.803 47.989 37.718 C 47.617 37.634 47.285 37.426 47.047 37.129 C 46.81 36.831 46.68 36.461 46.68 36.08 C 46.68 35.636 46.856 35.21 47.169 34.896 C 47.481 34.581 47.906 34.403 48.35 34.4 Z M 49.13 36.08 C 49.13 35.873 49.048 35.675 48.902 35.528 C 48.755 35.382 48.557 35.3 48.35 35.3 C 48.143 35.3 47.945 35.382 47.798 35.528 C 47.652 35.675 47.57 35.873 47.57 36.08 C 47.57 36.287 47.652 36.485 47.798 36.632 C 47.945 36.778 48.143 36.86 48.35 36.86 C 48.557 36.86 48.755 36.778 48.902 36.632 C 49.048 36.485 49.13 36.287 49.13 36.08 Z M 48.92 18.46 L 45.48 19.35 C 45.005 19.518 44.594 19.83 44.303 20.242 C 44.013 20.654 43.858 21.146 43.86 21.65 L 43.86 35.26 L 41.76 35.26 L 41.76 18.46 L 48.92 18.46 Z M 43.86 19.36 L 42.66 19.36 L 42.66 34.36 L 43 34.36 L 43 21.89 C 42.975 20.971 43.28 20.073 43.86 19.36 Z M 48.8 11.5 L 48.8 16.42 C 48.8 16.864 48.624 17.29 48.311 17.604 C 47.999 17.919 47.574 18.097 47.13 18.1 L 42.21 18.1 C 41.766 18.097 41.341 17.919 41.029 17.604 C 40.716 17.29 40.54 16.864 40.54 16.42 L 40.54 11.5 C 40.54 11.057 40.716 10.632 41.029 10.319 C 41.342 10.006 41.767 9.83 42.21 9.83 L 47.13 9.83 C 47.423 9.83 47.711 9.907 47.965 10.054 C 48.219 10.2 48.43 10.411 48.576 10.665 C 48.723 10.919 48.8 11.207 48.8 11.5 Z M 47.9 16.42 L 47.9 11.5 C 47.9 11.295 47.819 11.098 47.675 10.952 C 47.531 10.806 47.335 10.723 47.13 10.72 L 42.21 10.72 C 42.005 10.723 41.809 10.806 41.665 10.952 C 41.521 11.098 41.44 11.295 41.44 11.5 L 41.44 16.42 C 41.438 16.556 41.473 16.691 41.54 16.809 C 41.607 16.928 41.704 17.027 41.822 17.095 C 41.94 17.164 42.074 17.2 42.21 17.2 L 47.13 17.2 C 47.266 17.2 47.4 17.164 47.518 17.095 C 47.636 17.027 47.733 16.928 47.8 16.809 C 47.867 16.691 47.902 16.556 47.9 16.42 Z M 48.8 4.89 L 48.8 7 L 47.58 7 L 47.58 9.46 L 41.76 9.46 L 41.76 7 L 8.26 7 L 8.26 9.46 L 2.45 9.46 L 2.45 7 L 1.23 7 L 1.23 4.89 L 5.36 0 L 44.68 0 Z M 47.9 6.14 L 47.9 5.22 L 44.26 0.9 L 5.78 0.9 L 2.13 5.22 L 2.13 6.14 L 3.35 6.14 L 3.35 8.56 L 7.35 8.56 L 7.35 6.14 L 42.66 6.14 L 42.66 8.56 L 46.66 8.56 L 46.66 6.14 Z M 40.21 32.15 L 40.21 35.26 L 9.83 35.26 L 9.83 32.15 L 40.21 32.15 Z M 39.31 34.36 L 39.31 33.05 L 10.72 33.05 L 10.72 34.36 Z M 40.17 16.42 L 40.17 16.87 L 29.17 16.87 L 29.17 19.33 L 20.88 19.33 L 20.88 16.87 L 9.88 16.87 L 9.88 11.06 L 40.17 11.06 Z M 39.27 15.97 L 39.27 12 L 10.76 12 L 10.76 16 L 21.76 16 L 21.76 18.46 L 28.23 18.46 L 28.23 16 Z M 30.38 27.29 L 30.38 30.38 L 19.65 30.38 L 19.65 27.29 L 22.37 24.57 L 27.66 24.57 Z M 29.48 29.48 L 29.48 27.66 L 27.29 25.47 L 22.75 25.47 L 20.55 27.66 L 20.55 29.48 Z M 26.69 19.69 L 26.69 24.2 L 23.34 24.2 L 23.34 19.69 Z M 25.79 23.31 L 25.79 20.59 L 24.24 20.59 L 24.24 23.31 Z M 12.12 39.31 C 12.385 39.336 12.63 39.459 12.809 39.656 C 12.988 39.853 13.087 40.109 13.087 40.375 C 13.087 40.641 12.988 40.897 12.809 41.094 C 12.63 41.291 12.385 41.414 12.12 41.44 L 4.75 41.44 C 4.511 41.463 4.271 41.405 4.069 41.276 C 3.867 41.146 3.714 40.952 3.636 40.725 C 3.557 40.498 3.557 40.252 3.636 40.025 C 3.714 39.798 3.867 39.604 4.069 39.474 C 4.271 39.345 4.511 39.287 4.75 39.31 Z M 12.28 40.37 C 12.28 40.328 12.263 40.287 12.233 40.257 C 12.203 40.227 12.162 40.21 12.12 40.21 L 4.75 40.21 C 4.721 40.208 4.692 40.214 4.666 40.228 C 4.64 40.242 4.618 40.262 4.603 40.287 C 4.588 40.312 4.58 40.341 4.58 40.37 C 4.582 40.414 4.601 40.456 4.632 40.488 C 4.664 40.519 4.706 40.538 4.75 40.54 L 12.12 40.54 C 12.163 40.537 12.204 40.518 12.234 40.487 C 12.264 40.455 12.28 40.413 12.28 40.37 Z M 12.12 41.77 C 12.385 41.796 12.63 41.919 12.809 42.116 C 12.988 42.313 13.087 42.569 13.087 42.835 C 13.087 43.101 12.988 43.357 12.809 43.554 C 12.63 43.751 12.385 43.874 12.12 43.9 L 4.75 43.9 C 4.511 43.923 4.271 43.865 4.069 43.736 C 3.867 43.606 3.714 43.412 3.636 43.185 C 3.557 42.958 3.557 42.712 3.636 42.485 C 3.714 42.258 3.867 42.064 4.069 41.934 C 4.271 41.805 4.511 41.747 4.75 41.77 Z M 12.28 42.83 C 12.28 42.788 12.263 42.747 12.233 42.717 C 12.203 42.687 12.162 42.67 12.12 42.67 L 4.75 42.67 C 4.707 42.67 4.665 42.686 4.633 42.716 C 4.602 42.746 4.583 42.787 4.58 42.83 C 4.582 42.874 4.601 42.916 4.632 42.948 C 4.664 42.979 4.706 42.998 4.75 43 L 12.12 43 C 12.163 42.997 12.204 42.978 12.234 42.947 C 12.264 42.915 12.28 42.873 12.28 42.83 Z M 12.12 44.22 C 12.385 44.246 12.63 44.369 12.809 44.566 C 12.988 44.763 13.087 45.019 13.087 45.285 C 13.087 45.551 12.988 45.807 12.809 46.004 C 12.63 46.201 12.385 46.324 12.12 46.35 L 4.75 46.35 C 4.511 46.373 4.271 46.315 4.069 46.186 C 3.867 46.056 3.714 45.862 3.636 45.635 C 3.557 45.408 3.557 45.162 3.636 44.935 C 3.714 44.708 3.867 44.514 4.069 44.384 C 4.271 44.255 4.511 44.197 4.75 44.22 Z M 12.28 45.29 C 12.28 45.247 12.264 45.205 12.234 45.173 C 12.204 45.142 12.163 45.123 12.12 45.12 L 4.75 45.12 C 4.706 45.122 4.664 45.141 4.632 45.172 C 4.601 45.204 4.582 45.246 4.58 45.29 C 4.583 45.333 4.602 45.374 4.633 45.404 C 4.665 45.434 4.707 45.45 4.75 45.45 L 12.12 45.45 C 12.162 45.45 12.203 45.433 12.233 45.403 C 12.263 45.373 12.28 45.332 12.28 45.29 Z M 9.49 11.5 L 9.49 16.42 C 9.49 16.865 9.313 17.293 8.998 17.608 C 8.683 17.923 8.255 18.1 7.81 18.1 L 2.9 18.1 C 2.455 18.097 2.029 17.919 1.715 17.605 C 1.401 17.291 1.223 16.865 1.22 16.42 L 1.22 11.5 C 1.223 11.056 1.401 10.631 1.716 10.319 C 2.03 10.006 2.456 9.83 2.9 9.83 L 7.81 9.83 C 8.254 9.83 8.68 10.006 8.994 10.319 C 9.309 10.631 9.487 11.056 9.49 11.5 Z M 8.6 16.42 L 8.6 11.5 C 8.597 11.292 8.513 11.094 8.365 10.948 C 8.217 10.802 8.018 10.72 7.81 10.72 L 2.9 10.72 C 2.694 10.723 2.497 10.806 2.351 10.951 C 2.206 11.097 2.123 11.294 2.12 11.5 L 2.12 16.42 C 2.12 16.627 2.202 16.825 2.348 16.972 C 2.495 17.118 2.693 17.2 2.9 17.2 L 7.81 17.2 C 7.948 17.202 8.084 17.167 8.204 17.099 C 8.324 17.031 8.424 16.932 8.494 16.813 C 8.563 16.694 8.6 16.558 8.6 16.42 Z M 8.26 18.46 L 8.26 35.26 L 2.45 35.26 L 2.45 18.46 L 8.26 18.46 Z M 7.37 34.36 L 7.37 19.36 L 3.37 19.36 L 3.37 34.36 Z"
                fill="#FFFFFF"
                stroke-width="1"/>
        </g>
    </g>
</svg>
