<svg
    xmlns="http://www.w3.org/2000/svg"
    viewBox="0 0 40 54"
    id="vector">
    <g id="group_1">
        <g id="group">
            <path
                id="path"
                d="M 37 5.82 L 32.34 5.82 L 32.34 4 C 32.34 3.69 32.217 3.392 31.997 3.173 C 31.778 2.953 31.48 2.83 31.17 2.83 L 24.35 2.83 C 23.862 1.701 22.951 0.807 21.812 0.342 C 20.673 -0.123 19.397 -0.123 18.258 0.342 C 17.119 0.807 16.208 1.701 15.72 2.83 L 8.9 2.83 C 8.59 2.83 8.292 2.953 8.073 3.173 C 7.853 3.392 7.73 3.69 7.73 4 L 7.73 5.82 L 3.08 5.82 C 2.263 5.82 1.48 6.145 0.902 6.722 C 0.325 7.3 0 8.083 0 8.9 L 0 51.06 C 0 51.877 0.325 52.66 0.902 53.238 C 1.48 53.815 2.263 54.14 3.08 54.14 L 37 54.14 C 37.817 54.14 38.602 53.816 39.181 53.238 C 39.76 52.661 40.087 51.877 40.09 51.06 L 40.09 8.9 C 40.087 8.083 39.76 7.299 39.181 6.722 C 38.602 6.144 37.817 5.82 37 5.82 Z M 9.63 7.71 L 9.63 4.71 L 17.13 4.71 L 17.31 4 C 17.463 3.393 17.814 2.854 18.307 2.47 C 18.801 2.085 19.409 1.876 20.035 1.876 C 20.661 1.876 21.269 2.085 21.763 2.47 C 22.256 2.854 22.607 3.393 22.76 4 L 22.95 4.71 L 30.45 4.71 L 30.45 9 L 9.63 9 Z M 38.18 51.06 C 38.18 51.374 38.056 51.675 37.835 51.898 C 37.614 52.121 37.314 52.247 37 52.25 L 3.08 52.25 C 2.765 52.25 2.462 52.125 2.239 51.901 C 2.015 51.678 1.89 51.375 1.89 51.06 L 1.89 8.9 C 1.893 8.585 2.019 8.284 2.241 8.061 C 2.464 7.839 2.765 7.713 3.08 7.71 L 7.73 7.71 L 7.73 9.71 C 7.726 9.918 7.778 10.122 7.88 10.303 C 7.982 10.484 8.13 10.635 8.309 10.74 C 8.488 10.845 8.692 10.9 8.9 10.9 L 31.17 10.9 C 31.48 10.9 31.778 10.777 31.997 10.557 C 32.217 10.338 32.34 10.04 32.34 9.73 L 32.34 7.73 L 37 7.73 C 37.31 7.733 37.608 7.856 37.828 8.075 C 38.048 8.293 38.175 8.59 38.18 8.9 Z"
                fill="#FFFFFF"
                stroke-width="1"/>
            <path
                id="path_1"
                d="M 15.12 15.85 C 14.911 15.718 14.66 15.669 14.416 15.711 C 14.172 15.754 13.953 15.885 13.8 16.08 L 10.36 21.08 L 8 17.77 C 7.845 17.585 7.626 17.465 7.386 17.436 C 7.146 17.407 6.904 17.47 6.71 17.612 C 6.515 17.755 6.382 17.967 6.337 18.204 C 6.293 18.441 6.34 18.687 6.47 18.89 L 9.62 23.22 C 9.711 23.338 9.828 23.435 9.961 23.502 C 10.094 23.57 10.241 23.607 10.39 23.61 C 10.54 23.607 10.688 23.569 10.82 23.497 C 10.952 23.426 11.065 23.324 11.15 23.2 L 15.36 17.2 C 15.463 17.062 15.526 16.899 15.542 16.728 C 15.559 16.557 15.528 16.385 15.454 16.23 C 15.379 16.075 15.264 15.944 15.12 15.85 Z M 32.85 18.7 L 21.85 18.7 C 21.637 18.678 21.423 18.729 21.243 18.844 C 21.062 18.958 20.926 19.131 20.855 19.333 C 20.785 19.535 20.785 19.755 20.855 19.957 C 20.926 20.159 21.062 20.332 21.243 20.446 C 21.423 20.561 21.637 20.612 21.85 20.59 L 32.85 20.59 C 33.084 20.566 33.301 20.456 33.458 20.281 C 33.615 20.107 33.703 19.88 33.703 19.645 C 33.703 19.41 33.615 19.183 33.458 19.009 C 33.301 18.834 33.084 18.724 32.85 18.7 Z M 15.12 27.38 C 14.911 27.248 14.66 27.199 14.416 27.241 C 14.172 27.284 13.953 27.415 13.8 27.61 L 10.36 32.61 L 8 29.31 C 7.843 29.135 7.627 29.023 7.393 28.998 C 7.159 28.973 6.924 29.036 6.734 29.174 C 6.543 29.312 6.411 29.516 6.362 29.746 C 6.313 29.976 6.352 30.217 6.47 30.42 L 9.62 34.75 C 9.711 34.868 9.828 34.965 9.961 35.032 C 10.094 35.1 10.241 35.137 10.39 35.14 C 10.541 35.14 10.689 35.102 10.822 35.031 C 10.954 34.959 11.067 34.856 11.15 34.73 L 15.36 28.73 C 15.499 28.517 15.552 28.258 15.508 28.007 C 15.463 27.757 15.324 27.532 15.12 27.38 Z M 32.85 30.23 L 21.85 30.23 C 21.637 30.208 21.423 30.259 21.243 30.374 C 21.062 30.488 20.926 30.661 20.855 30.863 C 20.785 31.065 20.785 31.285 20.855 31.487 C 20.926 31.689 21.062 31.862 21.243 31.976 C 21.423 32.091 21.637 32.142 21.85 32.12 L 32.85 32.12 C 33.084 32.096 33.301 31.986 33.458 31.811 C 33.615 31.637 33.703 31.41 33.703 31.175 C 33.703 30.94 33.615 30.713 33.458 30.539 C 33.301 30.364 33.084 30.254 32.85 30.23 Z M 15.12 38.91 C 14.909 38.779 14.658 38.731 14.414 38.776 C 14.17 38.82 13.951 38.954 13.8 39.15 L 10.36 44.09 L 8 40.84 C 7.878 40.677 7.707 40.556 7.512 40.496 C 7.317 40.436 7.108 40.44 6.915 40.506 C 6.722 40.572 6.555 40.698 6.438 40.865 C 6.321 41.032 6.26 41.232 6.264 41.436 C 6.268 41.64 6.337 41.837 6.46 42 L 9.61 46.33 C 9.701 46.448 9.818 46.545 9.951 46.612 C 10.084 46.68 10.231 46.717 10.38 46.72 C 10.529 46.719 10.677 46.683 10.809 46.613 C 10.941 46.543 11.055 46.443 11.14 46.32 L 15.35 40.32 C 15.455 40.177 15.521 40.008 15.539 39.831 C 15.557 39.654 15.528 39.475 15.455 39.314 C 15.381 39.152 15.265 39.012 15.12 38.91 Z M 32.85 41.76 L 21.85 41.76 C 21.637 41.738 21.423 41.789 21.243 41.904 C 21.062 42.018 20.926 42.191 20.855 42.393 C 20.785 42.595 20.785 42.815 20.855 43.017 C 20.926 43.219 21.062 43.392 21.243 43.506 C 21.423 43.621 21.637 43.672 21.85 43.65 L 32.85 43.65 C 33.084 43.626 33.301 43.516 33.458 43.341 C 33.615 43.167 33.703 42.94 33.703 42.705 C 33.703 42.47 33.615 42.243 33.458 42.069 C 33.301 41.894 33.084 41.784 32.85 41.76 Z M 20.04 3.29 C 19.661 3.29 19.297 3.441 19.029 3.709 C 18.761 3.977 18.61 4.341 18.61 4.72 C 18.61 5.099 18.761 5.463 19.029 5.731 C 19.297 5.999 19.661 6.15 20.04 6.15 C 20.342 6.15 20.636 6.054 20.881 5.877 C 21.125 5.699 21.307 5.449 21.4 5.162 C 21.493 4.875 21.493 4.565 21.4 4.278 C 21.307 3.991 21.125 3.741 20.881 3.563 C 20.636 3.386 20.342 3.29 20.04 3.29 Z"
                fill="#FFFFFF"
                stroke-width="1"/>
        </g>
    </g>
</svg>
