<svg
    xmlns="http://www.w3.org/2000/svg"
    viewBox="0 0 54 54"
    id="vector">
    <path
        id="path"
        d="M 31.29 52.68 C 36.645 51.792 41.59 49.25 45.427 45.411 C 49.264 41.571 51.805 36.625 52.69 31.27 L 47.37 31.27 C 43.111 31.283 39.026 32.983 36.014 35.994 C 33.003 39.006 31.303 43.091 31.29 47.35 Z M 22.85 1.46 C 17.501 2.348 12.562 4.887 8.727 8.72 C 4.892 12.553 2.35 17.491 1.46 22.84 L 6.77 22.84 C 11.029 22.827 15.114 21.127 18.126 18.116 C 21.137 15.104 22.837 11.019 22.85 6.76 Z M 45.42 8.72 C 41.592 4.874 36.646 2.332 31.29 1.46 L 31.29 6.76 C 31.303 11.019 33.003 15.104 36.014 18.116 C 39.026 21.127 43.111 22.827 47.37 22.84 L 52.68 22.84 C 51.801 17.489 49.26 12.548 45.42 8.72 M 22.85 52.72 L 22.85 47.35 C 22.837 43.091 21.137 39.006 18.126 35.994 C 15.114 32.983 11.029 31.283 6.77 31.27 L 1.46 31.27 C 2.345 36.624 4.884 41.569 8.719 45.408 C 12.554 49.247 17.497 51.79 22.85 52.68 M 1.14 28.21 L 16.37 28.21 L 16.37 28.55 C 16.37 28.59 16.37 28.74 16.42 28.84 L 16.42 29.88 C 16.414 29.926 16.414 29.974 16.42 30.02 L 16.42 30.1 C 16.42 30.1 16.42 30.2 16.47 30.26 C 16.489 30.331 16.512 30.402 16.54 30.47 L 16.54 30.71 C 16.554 30.754 16.571 30.798 16.59 30.84 L 16.59 30.93 L 16.65 31.07 L 16.65 31.16 L 16.71 31.29 L 16.71 31.39 L 16.77 31.51 L 16.77 31.61 L 16.83 31.73 L 16.83 31.82 C 16.83 31.9 16.92 31.99 16.96 32.07 L 16.96 32.15 C 16.987 32.188 17.01 32.228 17.03 32.27 L 17.08 32.36 L 17.16 32.49 L 17.16 32.56 L 17.24 32.69 L 17.29 32.77 L 17.36 32.89 L 17.42 32.97 L 17.5 33.09 L 17.5 33.16 C 17.6 33.31 17.71 33.46 17.82 33.6 L 17.91 33.72 L 17.97 33.8 L 18.06 33.9 L 18.13 33.98 L 18.22 34.08 L 18.28 34.16 L 18.38 34.26 L 18.44 34.33 L 18.54 34.44 L 18.6 34.5 L 18.85 34.74 L 18.95 34.84 L 19.02 34.91 L 19.13 35.01 L 19.2 35.07 L 19.31 35.16 L 19.38 35.22 L 19.49 35.31 L 19.56 35.37 L 19.68 35.46 L 19.74 35.46 C 19.89 35.58 20.05 35.69 20.21 35.8 L 20.34 35.89 L 20.41 35.89 L 20.54 35.97 L 20.62 35.97 L 20.75 36.06 L 20.82 36.06 L 20.95 36.14 L 21.02 36.14 L 21.16 36.22 L 21.22 36.22 L 21.74 36.48 L 21.79 36.48 L 21.93 36.55 L 22.01 36.55 L 23 37 L 23.16 37.06 L 23.21 37.06 L 23.38 37.12 L 24.18 37.37 L 25.18 37.37 L 25.85 37.46 L 25.85 53 L 28.16 53 L 28.16 37.74 L 28.82 37.65 L 29.76 37.65 L 30.56 37.4 L 30.73 37.34 L 30.78 37.34 L 31.1 37 L 31.17 37 L 31.32 36.94 L 31.4 36.94 L 31.54 36.87 L 31.59 36.87 L 32.11 36.61 L 32.17 36.61 L 32.31 36.53 L 32.38 36.53 L 32.51 36.45 L 32.58 36.45 L 32.72 36.36 L 32.79 36.36 L 32.92 36.28 L 33 36 L 33.13 35.91 L 33.59 35.57 L 33.65 35.57 L 33.77 35.48 L 33.84 35.42 L 33.95 35.33 L 34.02 35.27 L 34.13 35.18 L 34.2 35.12 L 34.31 35.02 L 34.38 34.95 L 34.49 34.85 L 34.73 34.61 L 34.79 34.55 L 34.89 34.44 L 34.95 34.37 L 35.05 34.27 L 35.11 34.19 L 35.2 34.09 L 35.27 34.01 L 35.36 33.91 L 35.42 33.83 L 35.51 33.71 L 35.84 33.27 L 35.84 33.2 C 35.87 33.162 35.897 33.122 35.92 33.08 L 35.98 33 L 36.05 32.88 L 36.05 32.8 L 36.13 32.67 L 36.13 32.6 C 36.13 32.55 36.13 32.51 36.2 32.47 L 36.2 32.38 C 36.22 32.338 36.243 32.298 36.27 32.26 L 36.27 32.18 L 36.4 31.93 L 36.4 31.84 L 36.46 31.72 L 36.46 31.62 L 36.52 31.5 L 36.52 31.4 L 36.58 31.27 L 36.58 31.18 C 36.576 31.133 36.576 31.087 36.58 31.04 L 36.58 30.95 C 36.583 30.907 36.583 30.863 36.58 30.82 L 36.58 30.58 L 36.66 30.37 L 36.66 30.13 C 36.666 30.084 36.666 30.036 36.66 29.99 L 36.66 28.54 C 36.665 28.497 36.665 28.453 36.66 28.41 L 36.66 28.32 L 53 28.32 L 53 26.01 L 37.77 26.01 L 37.77 25.92 C 37.775 25.877 37.775 25.833 37.77 25.79 L 37.77 25.67 C 37.775 25.577 37.775 25.483 37.77 25.39 L 37.77 24.28 C 37.776 24.234 37.776 24.186 37.77 24.14 L 37.77 23.91 C 37.77 23.86 37.72 23.76 37.69 23.69 L 37.69 23.45 C 37.693 23.407 37.693 23.363 37.69 23.32 L 37.69 23.23 C 37.686 23.183 37.686 23.137 37.69 23.09 L 37 23 L 37 22.73 L 36.94 22.6 L 36.94 22.5 L 36.88 22.38 L 36.88 22.29 L 36.59 22 L 36.59 21.92 C 36.563 21.882 36.54 21.842 36.52 21.8 L 36.52 21.72 C 36.52 21.67 36.52 21.63 36.45 21.59 L 36.45 21.51 L 36.37 21.38 L 36.37 21.3 L 36.3 21.18 L 36.24 21.1 C 36.166 21.054 36.085 21.021 36 21 L 36 20.93 L 35.67 20.49 L 35.67 20.44 L 35.58 20.32 L 35.52 20.24 L 35.43 20.14 L 35.36 20.06 L 35.27 19.96 L 35.21 19.88 C 35.179 19.844 35.146 19.811 35.11 19.78 L 35.05 19.71 L 34.95 19.6 L 34.89 19.54 L 34.65 19.3 L 34.54 19.2 L 34.47 19.13 L 34.23 19 L 34.16 19 L 34.05 18.91 L 34 18.82 L 33.89 18.73 L 33.82 18.67 L 33.7 18.58 L 33.64 18.58 L 33.18 18.24 L 33 18.08 L 32.93 18.08 C 32.883 18.059 32.84 18.032 32.8 18 L 32.73 18 L 32.59 17.92 L 32.52 17.92 L 32.39 17.84 L 32.32 17.84 L 32.18 17.76 L 32.12 17.76 C 31.95 17.67 31.78 17.58 31.6 17.5 L 31.55 17.5 L 31.41 17.43 L 31.33 17.43 L 31.18 17.37 L 31.11 17.37 L 30.94 17 L 30.89 17 L 30.72 16.93 C 30.458 16.832 30.191 16.748 29.92 16.68 L 28.98 16.68 L 28.32 16.59 L 28.32 1.14 L 26.01 1.14 L 26.01 16.37 L 25.34 16.46 L 24.3 16.46 C 24.029 16.528 23.762 16.612 23.5 16.71 L 23.33 16.78 L 23.28 16.78 L 23.12 16.84 L 23.05 16.84 L 22.9 16.9 L 22.82 16.9 L 22.68 16.97 L 22.63 16.97 C 22.45 17.05 22.28 17.14 22.11 17.23 L 22.05 17.23 L 21.91 17.31 L 21.84 17.31 L 21.71 17.39 L 21.64 17.39 C 21.593 17.411 21.55 17.438 21.51 17.47 L 21.43 17.47 C 21.39 17.502 21.347 17.529 21.3 17.55 L 21.23 17.55 L 21.1 17.64 C 20.94 17.75 20.78 17.86 20.63 17.98 L 20.57 17.98 L 20.45 18.07 L 20.38 18.13 L 20.27 18.22 L 20.2 18.28 L 20 19 L 19.93 19.07 L 19.82 19.16 L 19.75 19.23 L 19.65 19.33 L 19.4 19.57 L 19.34 19.63 L 19.24 19.74 L 19.18 19.81 L 19.08 19.91 L 19 20 L 18.91 20.1 L 18.84 20.18 L 18.75 20.28 L 18.69 20.36 L 18.6 20.48 L 18.6 20.53 C 18.49 20.67 18.38 20.82 18.28 20.97 L 18.28 21.04 L 18.2 21.16 L 18.14 21.24 L 18.07 21.36 L 18.02 21.44 L 17.94 21.57 L 17.94 21.65 C 17.908 21.69 17.881 21.733 17.86 21.78 L 17.81 21.86 C 17.79 21.902 17.767 21.942 17.74 21.98 L 17.74 22.06 C 17.74 22.14 17.66 22.23 17.61 22.31 L 17.61 22.4 L 17.55 22.52 L 17.55 22.62 L 17.49 22.75 L 17.49 22.84 L 17.43 22.97 L 17.43 23.06 L 17.37 23.2 L 17.37 23.29 C 17.351 23.332 17.334 23.376 17.32 23.42 L 17.32 23.66 C 17.291 23.731 17.267 23.805 17.25 23.88 L 17.2 24.03 L 17.2 24.11 C 17.194 24.156 17.194 24.204 17.2 24.25 L 17.2 25.3 C 17.2 25.39 17.2 25.49 17.15 25.58 C 17.1 25.67 17.15 25.66 17.15 25.7 L 17.15 25.92 L 1.14 25.92 L 1.14 28.23 M 27.07 0 C 33.331 -0.001 39.403 2.171 44.244 6.143 C 49.084 10.115 52.4 15.645 53.622 21.786 C 54.844 27.927 53.899 34.306 50.948 39.829 C 47.996 45.351 43.219 49.682 37.434 52.079 C 31.65 54.475 25.209 54.792 19.217 52.975 C 13.225 51.158 8.045 47.317 4.566 42.111 C 1.087 36.905 -0.48 30.65 0.133 24.419 C 0.746 18.187 3.503 12.358 7.93 7.93 C 10.441 5.413 13.425 3.417 16.709 2.056 C 19.994 0.695 23.515 -0.003 27.07 0 M 37.39 30.1 L 37.39 30.26 M 16.75 24 L 16.8 23.85 M 37.39 24 L 37.39 23.85 M 16.75 30.1 C 16.75 30.1 16.75 30.2 16.8 30.26"
        fill="#ffffff"
        stroke-width="1"/>
    <path
        id="path_1"
        d="M 27.07 18.53 C 29.334 18.53 31.508 19.43 33.109 21.031 C 34.71 22.632 35.61 24.806 35.61 27.07 C 35.61 29.334 34.71 31.508 33.109 33.109 C 31.508 34.71 29.334 35.61 27.07 35.61 C 24.806 35.61 22.632 34.71 21.031 33.109 C 19.43 31.508 18.53 29.334 18.53 27.07 C 18.53 24.806 19.43 22.632 21.031 21.031 C 22.632 19.43 24.806 18.53 27.07 18.53 Z"
        fill="none"
        stroke="#e6e7e8"
        stroke-width="0.09"
        stroke-linecap="round"
        stroke-linejoin="round"/>
    <path
        id="path_2"
        d="M 27.07 18.53 C 29.334 18.53 31.508 19.43 33.109 21.031 C 34.71 22.632 35.61 24.806 35.61 27.07 C 35.61 29.334 34.71 31.508 33.109 33.109 C 31.508 34.71 29.334 35.61 27.07 35.61 C 24.806 35.61 22.632 34.71 21.031 33.109 C 19.43 31.508 18.53 29.334 18.53 27.07 C 18.53 24.806 19.43 22.632 21.031 21.031 C 22.632 19.43 24.806 18.53 27.07 18.53"
        fill="#ffcc29"
        stroke-width="1"
        fill-rule="evenodd"/>
</svg>
