<?xml version="1.0" encoding="UTF-8"?>
<svg version="1.1" viewBox="0 0 1600 1600" width="1280" height="1280"
    xmlns="http://www.w3.org/2000/svg">
    <path transform="translate(358 -.167)"
        d="m0 0c1.85-0.01 3.7-0.01 5.56-0.02 5.05-0.01 10.1-0.02 15.2-0.03 4.35-0.01 8.7-0.02 13-0.03 15.6-0.04 31.1-0.07 46.6-0.1h3.73c24.4-0.04 48.8-0.08 73.2-0.1 5.36 0 10.7-0.01 16.1-0.01h2.02c21.6-0.03 43.2-0.07 64.7-0.13 22.8-0.06 45.7-0.1 68.5-0.11 12.4-0.01 24.9-0.03 37.3-0.07 10.6-0.04 21.2-0.06 31.8-0.05 5.4 0.01 10.8 0.01 16.2-0.03 4.96-0.03 9.91-0.03 14.9-0.01 1.78 0.01 3.56 0 5.35-0.02 14.5-0.17 26.5 2.67 37.9 12.3 9.6 9.54 15.4 19.8 15.7 33.6-0.13 12.7-4.96 24.2-13.3 33.7-12.9 12-29.1 12.6-45.7 12.6-1.8 0-3.6 0-5.4 0.01-4.93 0.01-9.86 0-14.8 0-5.32 0-10.6 0.01-16 0.01-9.23 0.02-18.5 0.02-27.7 0.02-13.4 0-26.7 0.02-40.1 0.04-21.7 0.03-43.5 0.05-65.2 0.07h-3.94c-14.5 0.02-29 0.03-43.5 0.03-5.24 0.01-10.5 0.01-15.7 0.01-1.29 0-2.59 0.01-3.92 0.01-21.6 0.01-43.3 0.03-64.9 0.07-13.3 0.02-26.6 0.03-40 0.03-9.15-0.01-18.3 0-27.4 0.02-5.27 0.01-10.5 0.02-15.8 0.01-38.2-0.17-38.2-0.17-75.7 6.09-1.02 0.26-2.04 0.51-3.09 0.78-38.5 10-76.8 32.4-102 63.5-0.72 0.85-1.43 1.7-2.17 2.58-32.2 38.6-48.2 85.9-48.1 136 0 1.78 0 3.56-0.01 5.35 0 4.86 0 9.73 0.01 14.6 0 5.31-0.01 10.6-0.01 15.9-0.01 9.29-0.01 18.6-0.01 27.9 0.01 13.8 0 27.6-0.01 41.4-0.01 25.4-0.02 50.8-0.01 76.2v10.8 2.16c0 15.8 0 31.7-0.01 47.5v10.9 4.36 2.18 4.37c-0.01 41.3-0.02 82.6-0.01 124v2.32 25.6 2.33 9.34c0.01 49.2 0 98.5-0.02 148 0 12.4-0.01 24.8-0.01 37.2v2.31c-0.01 23.6-0.02 47.1-0.02 70.7v2.25 48.7c0.01 5.82 0.01 11.6 0.01 17.4v4.34c0 23-0.01 46-0.02 69-0.01 23.8-0.01 47.6 0 71.5 0.01 13.7 0 27.4-0.01 41.2-0.01 9.18-0.01 18.4 0.01 27.5 0 5.22 0 10.4-0.01 15.7-0.21 35.7-0.21 35.7 6.14 70.6 0.25 0.94 0.51 1.88 0.77 2.84 4.27 15.2 9.98 29.5 17.5 43.4 0.32 0.6 0.64 1.2 0.97 1.82 8.52 15.9 19.3 30.8 32.2 43.4 2.81 2.82 2.81 2.82 2.81 4.82 0.59 0.26 1.19 0.53 1.8 0.8 2.28 1.24 3.63 2.49 5.39 4.39 3.94 4.05 8.25 7.37 12.8 10.7 0.83 0.61 1.67 1.22 2.53 1.85 47.8 34.5 99.8 40.6 157 40.6 5.21 0 10.4 0.02 15.6 0.03 9.01 0.01 18 0.02 27 0.02 13 0.01 26.1 0.03 39.1 0.05 21.2 0.03 42.4 0.06 63.5 0.09h3.83c10.3 0.01 20.5 0.02 30.8 0.03 8.99 0.01 18 0.02 27 0.03h3.84c21.1 0.03 42.2 0.06 63.4 0.09 13 0.02 26 0.04 39 0.04 8.9 0.01 17.8 0.02 26.7 0.04 5.13 0 10.3 0.01 15.4 0.01 4.7 0 9.4 0 14.1 0.02h5.09c15.7-0.03 28 1.73 40 12.9 9.72 10.2 13.3 22.2 13 36-0.59 11.2-5.73 21.7-13.6 29.6-9.48 8.04-20.8 13-33.3 13-0.74 0.01-1.47 0.01-2.23 0.01-2.46 0.01-4.93 0-7.39 0-1.79 0-3.57 0-5.36 0.01-4.9 0.01-9.81 0.01-14.7 0-5.3 0-10.6 0.01-15.9 0.02-10.4 0.01-20.7 0.01-31.1 0.01h-25.3c-1.81 0-1.81 0-3.65 0.01h-7.32c-22.9 0.01-45.8 0.01-68.7 0-20.9 0-41.8 0.01-62.7 0.03-21.5 0.02-43 0.02-64.5 0.02-12.1 0-24.1 0-36.2 0.02-10.3 0.01-20.6 0.01-30.8 0-5.23-0.01-10.5-0.01-15.7 0-21.1 0.05-41.8-0.13-62.7-3.38-1.6-0.24-1.6-0.24-3.23-0.48-32.2-4.82-62.6-14.1-91.8-28.5-0.72-0.36-1.44-0.71-2.19-1.08-23.3-11.6-44.9-27-63.8-44.9-1.37-1.2-2.75-2.38-4.13-3.57-7.2-6.27-13.7-13.2-19.9-20.4-0.8-0.91-1.6-1.82-2.42-2.76-11.2-12.8-21.1-26.6-29.5-41.4-1.06-1.86-2.15-3.71-3.25-5.56-23.8-40.5-35.5-86.4-37.9-133-0.04-0.84-0.08-1.68-0.13-2.54-0.96-19.2-1.06-38.3-1.03-57.5 0-5.01 0-10-0.01-15 0-8.74 0-17.5 0.01-26.2 0.01-13 0-26 0-39-0.01-21.9 0-43.7 0.01-65.6 0.01-21.6 0.01-43.3 0.01-65v-4.09-16.5-46-2.11c0-22.2 0.01-44.4 0.01-66.6v-2.18c0.01-11.7 0.01-23.4 0.01-35 0.02-46.3 0.02-92.6 0.02-139v-4.4-8.77-19.7-4.36c0-38.9 0.01-77.8 0.01-117v-2.06c0.01-12.4 0.01-12.4 0.01-18.4v-44.7-2.03-8.09c0-25.1 0.01-50.2 0.02-75.3v-38.7c0-8.63 0-17.3 0.01-25.9 0-4.91 0.01-9.81 0-14.7-0.04-81.4 6.42-160 58.1-227 1.08-1.42 2.16-2.84 3.23-4.26 2.78-3.65 5.55-7.29 8.36-10.9 1.23-1.61 2.46-3.22 3.67-4.84 0.86-0.99 0.86-0.99 1.74-1.99h2c0.24-0.57 0.48-1.13 0.72-1.71 1.55-2.79 3.43-4.7 5.68-6.96 1.34-1.34 1.34-1.34 2.7-2.71 0.94-0.93 1.87-1.85 2.84-2.81 0.9-0.91 1.8-1.82 2.72-2.75 6.14-6.12 12.5-11.7 19.3-17.1 0.63-0.51 1.27-1.01 1.92-1.53 1.54-1.21 3.09-2.4 4.64-3.6 0.99-0.76 1.98-1.53 3-2.32 51.6-38.8 115-58.6 179-58.7z" />
    <path transform="translate(1238 477)"
        d="m0 0c2.24 2 4.43 3.96 6.45 6.18v2c0.99 0.33 1.98 0.66 3 1 1.33 1.67 2.67 3.33 4 5 1.44 1.19 2.89 2.38 4.35 3.55 2.59 2.29 4.75 4.92 6.99 7.54 2.94 3.4 6.03 6.41 9.53 9.23 3.2 2.61 5.79 5.63 8.47 8.77 2.98 3.44 6.12 6.48 9.66 9.35 3.07 2.63 5.45 5.43 8 8.56 1.65 1.68 3.32 3.35 5 5 1.04 1.05 2.08 2.11 3.12 3.16 1.1 1.11 2.21 2.23 3.31 3.34 0.55 0.56 1.1 1.11 1.66 1.69 2.61 2.62 5.23 5.14 8.1 7.47 2.38 1.99 4.29 3.9 6.24 6.28 2.76 3.24 5.66 5.93 8.94 8.63 2.51 2.22 4.49 4.86 6.63 7.43 1.46 1.21 2.92 2.41 4.4 3.59 1.87 1.65 3.42 3.45 5.03 5.35 2.76 3.24 5.66 5.93 8.94 8.63 2.51 2.22 4.49 4.86 6.63 7.43 1.46 1.21 2.92 2.41 4.4 3.59 1.87 1.65 3.42 3.45 5.03 5.35 2.76 3.24 5.66 5.93 8.94 8.63 2.51 2.22 4.49 4.86 6.63 7.43 1.46 1.21 2.92 2.41 4.4 3.59 1.87 1.65 3.42 3.45 5.03 5.35 2.76 3.24 5.66 5.93 8.94 8.63 2.51 2.22 4.49 4.86 6.63 7.43 1.46 1.21 2.92 2.41 4.4 3.59 1.87 1.65 3.42 3.45 5.03 5.35 2.76 3.24 5.66 5.93 8.94 8.63 2.51 2.22 4.49 4.86 6.63 7.43 0.99 0.83 1.98 1.65 3 2.5 3.1 2.59 5.42 5.4 8 8.5 0.78 0.62 1.56 1.24 2.37 1.88 3.04 2.46 5.4 5.21 7.93 8.17 3 3.46 6.15 6.51 9.7 9.39 3.07 2.63 5.41 5.46 8 8.56 0.99 0.83 1.98 1.65 3 2.5 3.11 2.6 5.45 5.37 8 8.5 1.64 1.69 3.31 3.36 5 5 18 18 18 18 20.4 20.5 2.51 2.54 2.51 2.54 5.32 4.63 9.46 7.8 17.6 19.5 19.2 31.9 1.04 13.1-1.69 26.2-10.3 36.5-1.56 1.74-3.16 3.44-4.77 5.13-0.96 1.02-0.96 1.02-1.95 2.07-10.5 11-21.3 21.8-32.1 32.5-3.38 3.38-6.76 6.76-10.1 10.2-6.6 6.6-13.2 13.2-19.8 19.8-5.36 5.37-10.7 10.7-16.1 16.1-15.2 15.2-30.5 30.5-45.7 45.7-1.23 1.23-1.23 1.23-2.48 2.49-0.82 0.82-1.64 1.64-2.49 2.48-13.3 13.3-26.6 26.6-39.9 40-13.7 13.7-27.4 27.4-41.1 41.1-7.68 7.68-15.4 15.4-23 23-6.53 6.54-13.1 13.1-19.6 19.6-3.33 3.33-6.66 6.66-9.98 9.99-3.05 3.06-6.11 6.11-9.16 9.16l-3.3 3.3c-13.3 13.3-25.7 24.6-45.3 25.2-12.8-0.22-22.7-4.71-32-13.5-9.81-10.4-13.4-21.8-13-36 1.44-23.1 23.6-39.5 38.8-54.7 2.51-2.51 5.02-5.01 7.53-7.52l13-13c6.27-6.26 12.5-12.5 18.8-18.8 10.2-10.2 20.3-20.3 30.5-30.5 9.87-9.86 19.7-19.7 29.6-29.6 0.62-0.62 1.24-1.23 1.87-1.86l14.4-14.4c3.78-3.77 7.55-7.55 11.3-11.3 0.81-0.8 0.81-0.8 1.63-1.62 19.2-19.2 38.5-38.4 57.7-57.7-76-0.71-152-1.1-228-1.08h-2.9c-24.2 0.01-48.4 0.02-72.6 0.04-23.7 0.02-47.5 0.03-71.2 0.03-10 0.01-20.1 0.01-30.2 0.01h-3.38c-26.2 0.01-52.4 0.03-78.6 0.04h-3.45c-26.7 0.01-53.4 0.03-80.1 0.04h-3.52c-4.68 0.01-9.37 0.01-14 0.01-2.34 0-4.68 0.01-7.02 0.01h-7.01c-38.6 0.02-77.2 0.04-116 0.05h-16.3c-1.07 0-2.14 0-3.24 0.01-17.2 0-34.3 0.01-51.5 0.03-17.2 0.01-34.3 0.02-51.5 0.02-10.2 0-20.4 0.01-30.5 0.02-6.79 0.01-13.6 0.01-20.4 0.01-3.87 0-7.74 0-11.6 0.01-4.17 0.01-8.34 0-12.5 0-1.2 0-2.39 0.01-3.62 0.01-16.8-0.06-31.1-2.56-43.5-14.6-8.01-8.88-12-19.1-11.8-31 0.01-0.83 0.02-1.66 0.03-2.51 0.33-12 4.29-21.3 12.4-30.2 9.5-8.45 19.9-13.1 32.6-13.1h1.99c2.2-0.01 4.41 0 6.62 0h4.8c4.43-0.01 8.85 0 13.3 0h14.4 25.3c12.5 0.01 25.1 0.01 37.6 0.01 21.1 0 42.2 0 63.2 0.01 20.9 0 41.8 0.01 62.6 0.01h3.93 19.8 40.2 2.03c32.6 0.01 65.2 0.01 97.8 0.02h34c0.7 0.01 1.41 0.01 2.13 0.01 32.6 0 65.3 0.01 97.9 0.01h6.35 42.1c28.6 0.01 57.2 0.01 85.8 0.01h3.99c87.8 0.01 176 0.03 264 0.04-1.12-1.27-2.24-2.55-3.35-3.83-0.63-0.71-1.25-1.42-1.89-2.15-10.2-11.6-21.1-22.5-32.1-33.4-1.94-1.94-3.89-3.88-5.83-5.82-4.17-4.15-8.34-8.31-12.5-12.5-6.6-6.57-13.2-13.1-19.8-19.7-2.26-2.25-4.52-4.51-6.78-6.77-0.56-0.56-1.13-1.12-1.71-1.7-6.4-6.4-12.8-12.8-19.2-19.2-0.88-0.87-0.88-0.87-1.78-1.76-9.49-9.47-19-18.9-28.5-28.4-9.77-9.74-19.5-19.5-29.3-29.2-6.01-6.01-12-12-18-18-4.12-4.1-8.24-8.21-12.4-12.3-2.37-2.37-4.75-4.74-7.13-7.1-2.58-2.57-5.15-5.14-7.72-7.72-0.75-0.74-1.5-1.48-2.27-2.24-9.61-9.68-15.1-20.4-15.2-34.3 0.19-12.2 4.38-23.1 12.6-32.2 20.1-19.1 46.1-16.9 66.3 0.12z" />
</svg>
