<?xml version="1.0" encoding="UTF-8"?>
<svg id="Layer_1" data-name="Layer 1" xmlns="http://www.w3.org/2000/svg" viewBox="0 0 86.3 73.52">
  <defs>
    <style>
      .cls-1 {
        fill: #FFFFFF;
        fill-rule: evenodd;
        stroke-width: 0px;
      }
    </style>
  </defs>
  <path class="cls-1" d="m36.76,9.59H4.79C2.15,9.59,0,7.44,0,4.79S2.15,0,4.79,0h31.96c2.65,0,4.79,2.15,4.79,4.79s-2.15,4.79-4.79,4.79Zm25.57,31.96H4.79C2.15,41.55,0,39.41,0,36.76c0-2.65,2.15-4.79,4.79-4.79h57.54c2.65,0,4.79,2.15,4.79,4.79,0,2.65-2.15,4.79-4.79,4.79Zm19.18,31.96H4.79c-2.65,0-4.79-2.15-4.79-4.79s2.15-4.79,4.79-4.79h76.71c2.65,0,4.79,2.15,4.79,4.79s-2.15,4.79-4.79,4.79Z"/>
</svg>