<svg
    xmlns="http://www.w3.org/2000/svg"
    viewBox="0 0 27 20"
    id="vector">
    <g id="group_1">
        <g id="group">
            <path
                id="path"
                d="M 27.09 1 L 0.5 1 C 0.367 1 0.24 0.947 0.146 0.854 C 0.053 0.76 0 0.633 0 0.5 C 0 0.367 0.053 0.24 0.146 0.146 C 0.24 0.053 0.367 0 0.5 0 L 27.09 0 C 27.223 0 27.35 0.053 27.444 0.146 C 27.537 0.24 27.59 0.367 27.59 0.5 C 27.59 0.633 27.537 0.76 27.444 0.854 C 27.35 0.947 27.223 1 27.09 1 Z M 16.48 10.56 L 0.5 10.56 C 0.367 10.56 0.24 10.507 0.146 10.414 C 0.053 10.32 0 10.193 0 10.06 C 0 9.927 0.053 9.8 0.146 9.706 C 0.24 9.613 0.367 9.56 0.5 9.56 L 16.5 9.56 C 16.633 9.56 16.76 9.613 16.854 9.706 C 16.947 9.8 17 9.927 17 10.06 C 17 10.15 16.976 10.239 16.93 10.316 C 16.884 10.393 16.818 10.457 16.738 10.5 C 16.659 10.543 16.57 10.564 16.48 10.56 Z M 27.09 20.12 L 0.5 20.12 C 0.367 20.12 0.24 20.067 0.146 19.974 C 0.053 19.88 0 19.753 0 19.62 C 0 19.487 0.053 19.36 0.146 19.266 C 0.24 19.173 0.367 19.12 0.5 19.12 L 27.09 19.12 C 27.223 19.12 27.35 19.173 27.444 19.266 C 27.537 19.36 27.59 19.487 27.59 19.62 C 27.59 19.753 27.537 19.88 27.444 19.974 C 27.35 20.067 27.223 20.12 27.09 20.12 Z"
                fill="#ffffff"
                stroke-width="1"/>
        </g>
    </g>
</svg>
